<svg id="Layer_1" data-name="Layer 1" xmlns="http://www.w3.org/2000/svg" viewBox="0 0 2240.78 1683.13"><defs><style>.cls-1{fill:#9e7842;}.cls-1,.cls-10,.cls-11,.cls-13,.cls-14,.cls-2,.cls-3,.cls-4,.cls-5,.cls-6,.cls-7,.cls-8,.cls-9{stroke:#000;stroke-width:2px;}.cls-1,.cls-10,.cls-11,.cls-13,.cls-14,.cls-3,.cls-4,.cls-5,.cls-6,.cls-7,.cls-8{stroke-linejoin:round;}.cls-2{fill:#131324;}.cls-2,.cls-9{stroke-miterlimit:10;}.cls-3{fill:#1d1d1b;}.cls-4{fill:#ffe4b0;}.cls-5{fill:#e0d5e0;}.cls-6{fill:#5a8bba;}.cls-8{fill:none;}.cls-10{fill:#f4eed8;}.cls-11,.cls-12{fill:#fff;}.cls-13{fill:#e6ab55;}.cls-14{fill:#d20a11;}</style></defs><title>Communication</title><path class="cls-1" d="M1494,1329.26c-203.54-29.13-368.55-289.91-368.55-582.48,0-199.8,77-362.74,190.58-436.72-149.87,45.76-258.66,231.23-258.66,468.78,0,292.57,165,553.36,368.55,582.48,64.55,9.24,125.21-5.94,178-40.29A251.29,251.29,0,0,1,1494,1329.26Z"/><path class="cls-2" d="M1794.46,884.32c0-292.57-165-553.36-368.56-582.48A251.46,251.46,0,0,0,1316,310.06C1202.39,384,1125.43,547,1125.43,746.78c0,292.57,165,553.35,368.55,582.48a251.29,251.29,0,0,0,109.89-8.23C1717.5,1247.06,1794.46,1084.11,1794.46,884.32Z"/><path class="cls-1" d="M876.14,742.41C793.55,730.6,726.61,624.79,726.61,506.09c0-76.69,27.93-140,70-172a100.64,100.64,0,0,0-27.2,4.37c-60.8,18.57-104.94,93.82-104.94,190.2C664.45,647.35,731.4,753.16,814,765c26.19,3.75,50.8-2.41,72.21-16.34,2.49-1.62,4.93-3.36,7.32-5.19A105.56,105.56,0,0,1,876.14,742.41Z"/><path class="cls-2" d="M963.51,571.44c0-118.7-67-224.51-149.53-236.32l-.6-.07a105.07,105.07,0,0,0-16.79-1c-42.05,32-70,95.32-70,172,0,118.7,66.94,224.51,149.53,236.32a105.56,105.56,0,0,0,17.37,1c2-1.56,4-3.17,6-4.87C938.2,705.26,963.51,644.42,963.51,571.44Z"/><path class="cls-3" d="M739.25,1316A86.43,86.43,0,0,0,752,1361.44c3.94,6.42,7.2,13.09,12.23,18.51,1.75,1.88,3.25,4.36,6.14,4,2.38-.34,2.31-1.54,4.1-3.15,3.59-3.21,6.41-5.88,8.75-10.23,10.34-19.16,21.19-38.17,30.78-57.73"/><path class="cls-4" d="M736.42,1337.31c39.62-19.25,112.22-24.22,110.71-80.92-.19-7.42-1.11-17.33-9-20.77-3-1.31-7.9-.31-11,.2a87.72,87.72,0,0,0-26.2,11.45,356.81,356.81,0,0,1-52.43,23"/><path class="cls-5" d="M1607.81,575.45c26.87-23.93,57.59-42,91.83-59.41-26.09-50.33-72.14-99.16-72.14-99.16-34.64,13-67.76,29.15-97.48,49.48a247.2,247.2,0,0,0,27,56.33C1570.11,543,1587.74,560.37,1607.81,575.45Z"/><path class="cls-6" d="M1790.87,809.49c-10.94-9.32-24.29-17.55-38.42-26.46-41.74-26.28-152.21-53.72-212.78-77.77a14.14,14.14,0,0,1-7.89-18.48c20-49.54,45.56-84.18,76-111.33-20.07-15.08-37.7-32.43-50.78-52.76a247.2,247.2,0,0,1-27-56.33c-2.1,1.43-4.17,2.88-6.23,4.35-100.7,72.06-164.52,162.16-215.94,270.89-22,46.61-40,95.33-67.53,139.08-31.52,50.13-64.49,95.37-101.89,141.45-9.9,12.2-22.93,25.87-38.48,40.19,29.87,20,56.88,44.07,76.83,74.6q5.91,9,11.08,18.25c14.79-12.47,29.76-24.93,45.27-37.16,61.65-48.6,137.95-71.71,174.73-71.94,17.64-.1,101.49,50.87,163.57,96,48.26,35,61.89,85.35,115.2,101.27C1825.45,1075.47,1790.87,809.49,1790.87,809.49Z"/><path class="cls-5" d="M1100,1062.32c-75.53,69.56-210.64,154.5-337.47,162.2,33.57,46.15,42.62,110.61,9.37,159.39,46.31-15.48,140.11-40.4,257.41-108.58,59.85-34.8,108.13-77.59,158.6-120.16q-5.19-9.21-11.08-18.25C1156.83,1106.39,1129.82,1082.34,1100,1062.32Z"/><path class="cls-4" d="M1076,725.87c-24.15,20.86-67.28,45.23-131.29,78.34-17.51,9-14.67,28.61,4.48,35.81,16.93,6.36,39.88,9.66,57.75,10.59,38.36,2,80,.29,116.41-5.93,33.1-5.66,74-23.09,108.91-8.51,35.78,15,33.7,20.21,74.19,47.27,34.16,0,75-32.29,81.92-72.25,6.23-36.2,2.31-68.92-20.37-96.63-37.35-.28-75.9-10.86-112.91-21.4-33.13-9.43-61.86-48.79-84-74.62-7.87-9.21-27.4-41.13-43.62-28.5-13.4,10.43,2.23,43.86,6.35,54.94,3.26,8.76,6.37,16,8.24,23.69-7,.81-16.62,6.33-22.72,9.08-5-1.45-29.83-46.1-43.57-56-15.37-11-29.19-5.08-24,15.47,3.85,15.07,11.49,28.92,18,42.89,5.27,11.21,13.6,34,6.1,45.71"/><circle class="cls-7" cx="940.48" cy="807.75" r="11.49"/><path class="cls-8" d="M1128.69,607.5a18.13,18.13,0,0,1,.13-4.54c13.82-2.5,28.68,28.21,35.48,38.17-2.9.42-5.3,1.82-7.41,2.72,1.55-.22,3.81.34,5.41.36-.66,4.4-4.79,6.15-4.42,11,3.92.22,8,.07,11.93.29a20.79,20.79,0,0,1,0,3.44c-3.09,2.94-7.85,3.55-12,4.85"/><path class="cls-8" d="M1056.5,632.81c2.52-14.07,18.5,14.12,21,18,3.44,5.4,12.85,12.19,8.92,19.25,1.66-1.81,2.9-1.48,4.66-2.43-.45,2.13.78,5.32.45,7.3,1.72-.44,4.21.61,5.92.19.73,4.24-.92,8.32-2.48,12.07"/><path class="cls-9" d="M1120.51,716.49a9.84,9.84,0,0,1,1.89,4.41c.12,1.62-.84,3.45-2.42,3.67a3.24,3.24,0,0,1-3-1.81,10,10,0,0,1-1-3.67,11.42,11.42,0,0,1,.14-3.14c.28-1.78,3-1.63,4.38.54"/><path class="cls-9" d="M1150.72,706.31a7,7,0,0,1,.66,6.65,2.38,2.38,0,0,1-.8,1.09c-1.36.9-2.9-.95-3.36-2.54a18,18,0,0,1-.67-5.27,2.73,2.73,0,0,1,.68-2.09c.84-.74,2.24-.21,2.83.75a6.1,6.1,0,0,1,.55,3.29"/><path class="cls-8" d="M1528.16,1102c5.83-1.12,11.21,3.61,16,6.35,21.06,11.93,41.08,25,61.17,38.43,35.81,24,76.13,41.57,118.09,21.09"/><path class="cls-8" d="M1332.37,897.79c46.38-1.2,87.08,25.69,133.33,26,68.47.5,134.86-37.59,157.87-102.29"/><path class="cls-8" d="M1517.84,715.79c59.37,17.74,79.81,88.8,67.6,142.13"/><path class="cls-8" d="M1524.77,566.72c8.35,20.89,33.25,35,53.74,41.6"/><path class="cls-8" d="M1299.44,1046.86c38.74-14.56,80.41-16.23,121.33-15.6"/><path class="cls-8" d="M1099.43,1086.77c-1.68.76-12.6-4.36-16.09-.81-5.13,5.22,9.49,13.78,13,17.57,7.52,8,29,40,17.41,42.51-13.84,3.32-13.73-22-29.77-22.29"/><path class="cls-8" d="M1292.42,884.15c-2.6,4.74-1.59,8,1.58,11.32,5.45,5.76,24.77-1.75,29.77-3.37,23.19-7.54,41.4-20.2,61.1-34.53"/><path class="cls-8" d="M1520.84,676.14c-3.2-15.24-9.55-28.26-8.57-44.94,1.14-19.28,17-5.85,29.6-7.47,9.49-1.22,9.21-5.81,3.22-11.21-18.11-16.33-34.57-33-51.21-51.17"/><path class="cls-4" d="M483.9,1147.68c-3.22-2.44-11.9-1.38-15.27.51-5.21,2.94-5.4,7.29-3.09,12.64,3.9,9,12.85,12.9,20.9,17.38H515.2"/><path class="cls-4" d="M587.36,1278.6c40.63,40.26,137.12,92.86,185.75,35.16,10.85-12.88,15-30.61,15.58-47.23.26-7.83-6.59-27.48-11.38-33.54"/><path class="cls-4" d="M524.6,1214.85c-5.65,3.61-20.63-6.18-25.43-9.68-7.06-5.15-13.82-10.68-14.79-20.08-.74-7.31,12-14.94,15.8-8.91"/><path class="cls-10" d="M576.93,1302.85a18.3,18.3,0,0,1-3.92-.79,12.94,12.94,0,0,1-7.34-5.34l-118.34-197.4c-3-5-.49-17.47,6.16-19.35l127.29-28.73a17.75,17.75,0,0,1,10.1.24,12.94,12.94,0,0,1,7.34,5.34l118.34,197.4c3,5,0,10.5-6.68,12.37h0L583.11,1302.3A17.28,17.28,0,0,1,576.93,1302.85Z"/><path class="cls-11" d="M579.38,1294.66a18.3,18.3,0,0,1-3.92-.79,12.94,12.94,0,0,1-7.34-5.34l-118.34-197.4c-3-5,0-10.5,6.68-12.37l126.78-35.71a17.72,17.72,0,0,1,10.09.24,12.91,12.91,0,0,1,7.34,5.34L719,1246c3,5,0,10.5-6.68,12.37h0l-126.78,35.71A17.28,17.28,0,0,1,579.38,1294.66Z"/><path class="cls-2" d="M578.12,1272a15.77,15.77,0,0,1-3.32-.67,11,11,0,0,1-6.23-4.53L468.13,1099.24c-2.52-4.2,0-8.91,5.67-10.5l107.59-30.3a15.08,15.08,0,0,1,8.57.2,11.05,11.05,0,0,1,6.23,4.53l100.44,167.54c2.51,4.2,0,8.91-5.67,10.49h0l-107.6,30.31A14.8,14.8,0,0,1,578.12,1272Z"/><path class="cls-4" d="M777.31,1233c-18.53-21.85-50.23-18.91-70.87-37.67-9.49-8.64-16.2-18.14-22.44-29.19-3.44-6.11-6.82-14.69-14-17.09-21.47-7.16-12.86,27.85-9,37.21,3.71,9.1,9.11,14.93,16.69,20.88,5.14,4,5.24,5.34,7.93,11.44,10.12,22.93,33.3,62.8,62.58,46.31"/><path class="cls-4" d="M530.92,1240.12c-.49-5.7-7.75-21.14-16.8-18.29-10.17,3.2-7,20.41-3.25,26.92,6.31,10.89,20.12,14.73,31.58,11"/><path class="cls-8" d="M653.52,1289.27c3.76.38,7.11-1.29,10.71-2.12,16.41-3.74,33-6,49.76-7.84"/><path class="cls-11" d="M597.87,1065.68c-4.41.79-4,7.45-6.24,10.58-2.12,3-21.56,19-10.88,19.58-.2,5.68-7,12-10.27,16.11-5,6.1-10,12.12-14.69,18.45-2.63,3.58-6.71,8.23-5.09,13,.83,2.48,2.73,3.11,3.09,6,1.29,10.49-8,27.31-24.3,51.55l24.94,42A17.56,17.56,0,0,0,559,1238c6-9.83,12.51-19.4,18.17-29.41,2.71-4.77,13.59-22.41,2.48-21.68-.81-6.8,7.53-15.44,10.89-20.44,4.5-6.69,8.28-13,10.84-20.55,3.15-9.23,13.24-18.11,16.44-27.91.31-1,.14-2.42,1-4.07.5-1,1.37-1.74,1.9-2.67a31.54,31.54,0,0,0,2-3.94Z"/><rect class="cls-12" x="1268.11" y="534.02" width="10.99" height="10.99" transform="translate(2555.67 20.43) rotate(135)"/><rect class="cls-12" x="1417.65" y="389.22" width="6.25" height="6.25" transform="translate(2702.84 -334.86) rotate(135)"/><rect class="cls-12" x="1313.69" y="378.32" width="6.25" height="6.25" transform="translate(2517.67 -279.96) rotate(135)"/><rect class="cls-12" x="822.34" y="411.28" width="6.25" height="6.25" transform="translate(1702.18 123.73) rotate(135)"/><rect class="cls-12" x="912.02" y="546.94" width="6.25" height="6.25" transform="translate(1951.2 291.92) rotate(135)"/><rect class="cls-12" x="921.45" y="599.69" width="6.25" height="6.25" transform="translate(2004.6 375.3) rotate(135)"/><rect class="cls-12" x="1658.59" y="630.16" width="6.25" height="6.25" transform="translate(3284.51 -93.92) rotate(135)"/><rect class="cls-12" x="1720.34" y="711.16" width="6.25" height="6.25" transform="translate(3447.21 0.69) rotate(135)"/><rect class="cls-12" x="1184.74" y="874.47" width="6.25" height="6.25" transform="translate(2648.35 658.2) rotate(135)"/><rect class="cls-12" x="1444.2" y="1125.3" width="6.25" height="6.25" transform="translate(3268.64 902.93) rotate(135)"/><rect class="cls-12" x="1334.78" y="630.16" width="6.25" height="6.25" transform="translate(2731.74 135.04) rotate(135)"/><rect class="cls-12" x="1201.77" y="572.33" width="6.25" height="6.25" transform="translate(2463.79 130.37) rotate(135)"/><rect class="cls-12" x="1356.98" y="1212.51" width="6.25" height="6.25" transform="translate(3181.43 1113.48) rotate(135)"/><path class="cls-13" d="M934.81,694.21s-128.58-65.88-265.53-1.5C546.36,750.49,536.11,867,536.11,867s-55.31,48.64-41,59.14c-5.86,16.16,10.3,18.58,10.3,18.58s4.24,16.06,25.45,8.79c-1.21,8.18-3.92,35.14-7.56,51.7s16.37,25.86,21.92-1.21,15-82.45,15-82.45,5.07,11,4.67,22.67c-6.06,12.52-6.06,27.87,3.23,30.29,9.7-19.79,24.58-51.56,13.8-87.92,0,0-4.31-109,131.86-159.31,108.73-40.19,189.37,8,189.37,8S920,719.66,934.81,694.21Z"/><line class="cls-8" x1="530.89" y1="953.52" x2="532.39" y2="942.31"/><path class="cls-14" d="M536.45,864.18s31.17-1,45.58,18C583.39,869,587.64,850,587.64,850S572.28,834.29,543,835.82C539.31,849.22,536.45,864.18,536.45,864.18Z"/><ellipse class="cls-10" cx="559.25" cy="852.07" rx="16.94" ry="16.08" transform="translate(-403.61 1186.25) rotate(-75.86)"/><polyline class="cls-10" points="558.81 841.84 559.25 852.07 567.68 850.21"/></svg>