<svg xmlns="http://www.w3.org/2000/svg" width="1423.58" height="1319.17" viewBox="0 0 1423.58 1319.17"><g transform="translate(-408.6 -181.98)"><path d="M1423.58,1246.01h0Z" transform="translate(408.6 254.14)" fill="#fff" stroke="#000" stroke-width="2"/><path d="M1423.58,1246.01h0Z" transform="translate(408.6 254.14)" opacity="0.16"/><circle cx="162.88" cy="162.88" r="162.88" transform="translate(692.02 182.98)" fill="#f9acbb" stroke="#000" stroke-miterlimit="10" stroke-width="2"/><path d="M1107.39,393.74c23.35.78,53.39-5.14,74.69,5.48,5.92,2.94,8.8,8.63,14.28,11.37,9.89,4.92,24.2,2.81,34.75,2.18,11.2-.67,21.79.32,33,1.11,6.79.48,20-1.7,26.23,2,3.55,2.13,3.88,7.13,7.09,9.24,4.27,2.8,11.85,2.14,16.85,2.12,14.9-.07,28-6.83,42.41-8.84,11.82-1.65,24.28-3.46,36.2-4,8.62-.4,15,1,23.34-2.07,8.66-3.16,15.27-9.94,24.26-12.45,10.17-2.85,26.91-.59,34.8-8.31-6-12.95-54-5.13-66-5.57-22.74-.82-44.85,4.6-62.11-12.67-10.95-11-22.85-15.7-32.29-29.33-13.13-18.95-25.59-34.62-50.54-36-17.32-1-28.45,9.36-43.17,16.12-17.88,8.21-20.91-7.86-37.8-6.63-21.43,1.56-25.56,25.58-37.35,38-9.74,10.25-21.61,10.7-34.22,12.44-8.65,1.19-14.1,5.88-22.16,8.53-7.62,2.51-10-1.36-17.89-.44-7.48.88-18.41,6.91-22.93,12.25,19.24,9,40.43,2.59,60.69,5.53" fill="#fff" stroke="#000" stroke-miterlimit="10" stroke-width="2"/><path d="M1594.86,622.34s47.41-31.66-8.09-98.32-13-87.5-13-98.95-27.86-17.71-47.16-17.71h1.25c-19.3,0-47.16,6.25-47.16,17.71s42.5,32.29-13,98.95-8.09,98.32-8.09,98.32" fill="#fff" stroke="#000" stroke-linejoin="round" stroke-width="2"/><path d="M1586.77,524c-55.5-66.66-13-87.5-13-98.95,0-4.92-5.13-8.87-12.51-11.79a12.37,12.37,0,0,1-7.49,4.07,110.2,110.2,0,0,1-13.48.39c-4.52,0-15.76-2.11-19,2.17,3.6,3.76,9.45,3.76,14.12,5.32,3.16,1,10.86,2.82,11.66,6.9,1.41,7.14-10.87,6.54-11.84,11-.27,1.24.45,1,.75,1.88.51,1.52,3.26,4.36,4.21,6.07,2.38,4.27,4.18,8.24,2.13,13-3.32,7.71-14.42,21.45-5.54,28.67,4.68,3.81,10.88,4.33,15,9.08a14.211,14.211,0,0,1,3.77,9.6c0,2.76-1.21,6.1.29,8.61,1.66,2.78,6.69,3.9,9.44,5,3.29,1.36,13.09,3.76,13.19,8,.07,3.31-3,7.53-3.48,11.06-1.47,10.17,6.62,14.7,10.43,23,3.62,7.91,1.36,12.67-2.42,20.4-2.57,5.26-5.58,10.45-7.74,15.66-2.08,5,.18,12.67,3,19.06h16.54S1642.27,590.68,1586.77,524Z" opacity="0.14"/><path d="M1447.63,555.6c12.18-6.19-1.55,31.08,11.45,26s8.58-29.39,21.1-33.56,2.45,27.31,16.43,24.54,7.61-27.09,20.37-29.86,7.11,25,17.91,26.15S1543,542.7,1554,544.32s7.36,26.62,15.46,27.54,5.89-23.61,14.23-21.76,6.62,24.31,15.21,26.85,1.88-22.25,7.81-21.54" fill="none" stroke="#000" stroke-linejoin="round" stroke-width="2"/><path d="M1648.19,645.59c0-24.47-52.85-46.64-118-46.64s-118.05,22.17-118.05,46.64V667h14.67c20.12,13.65,58.87,22.89,103.38,22.89s83.26-9.24,103.38-22.89h14.67Z" fill="#fff" stroke="#000" stroke-linejoin="round" stroke-width="2"/><path d="M1648.19,667.42c0,24.63-118,44.59-118,44.59s-118.05-20-118.05-44.59,52.85-46.22,118.05-46.22S1648.19,642.8,1648.19,667.42Z" fill="#ece3dd" stroke="#000" stroke-miterlimit="10" stroke-width="2"/><path d="M1634,677.63c0-21.53-46.51-41-103.88-41s-103.88,19.5-103.88,41v18.83h12.92c17.7,12,51.79,20.15,91,20.15s73.26-8.14,91-20.15H1634Z" fill="#fff" stroke="#000" stroke-linejoin="round" stroke-width="2"/><path d="M1634,695c0,21.67-46.51,39.23-103.88,39.23S1426.26,716.62,1426.26,695s46.51-40.68,103.88-40.68S1634,673.28,1634,695Z" fill="#ece3dd" stroke="#000" stroke-miterlimit="10" stroke-width="2"/><path d="M1432.24,1409.59V701.28c0-22.86,44-40.19,98.26-40.19s98.26,17.33,98.26,40.19v708.31" transform="translate(15 -2)" fill="#fff" stroke="#000" stroke-linejoin="round" stroke-width="2"/><path d="M1441.65,710.32c0-5.6,2-10.19,4.46-10.19h0c2.45,0,4.46,4.59,4.46,10.19v699.39" fill="#e6dad4" stroke="#000" stroke-linejoin="round" stroke-width="2"/><path d="M1611.72,710.32c0-5.6,2-10.19,4.46-10.19h0c2.45,0,4.46,4.59,4.46,10.19v699.39" fill="#e6dad4" stroke="#000" stroke-linejoin="round" stroke-width="2"/><path d="M1520,690.48a10.23,10.23,0,0,1,10.19-10.19h0a10.23,10.23,0,0,1,10.19,10.19v719.23" fill="#e6dad4" stroke="#000" stroke-linejoin="round" stroke-width="2"/><path d="M1476.32,695.58c0-5.61,3-10.19,6.67-10.19h0c3.67,0,6.68,4.58,6.68,10.19v714.13" fill="#e6dad4" stroke="#000" stroke-linejoin="round" stroke-width="2"/><path d="M1573.11,695.58c0-5.61,3-10.19,6.68-10.19h0c3.67,0,6.67,4.58,6.67,10.19v714.13" fill="#e6dad4" stroke="#000" stroke-linejoin="round" stroke-width="2"/><path d="M1628.76,1409.65V707.3a19.5,19.5,0,0,0,5.17-10.84h.09V682.59c8.65-4.74,14.17-9.84,14.17-15.17v-.43h0v-21.4c0-10-8.79-19.58-23.62-27.44,0,11.82-.06,23.64.07,35.46a19.761,19.761,0,0,1-3.81,12.29c-.69.9-1.88,1.42-2.56,2.32s-.88,2.26-1.56,3.07c-1.31,1.57-3.29,1.9-4.53,3.54-2.51,3.32-.83,8.73-2.76,12.79-2.49,5.26-5.35,4.71-9.44,7.87s-2.55,8.32-2.51,13.24a29.2,29.2,0,0,1-.85,6.79c-1.23,6-.85,12.25-.84,18.46,0,8.43-1.52,16.45-1.77,24.73-.29,9.89.07,19.85.07,29.75v22c0,2.36.86,6.49-.22,8.61-.45.89-2.24,1.7-2.91,2.44-2.61,2.88-3.45,6.54-4.59,10.32-1.87,6.18-5.37,13.79.84,18.24,3.06,2.2,4.56,2.23,5.28,5.71.87,4.16-.26,6.64-2.77,9.53-5.12,5.9-8.87,12.72-14.39,18.38-3.68,3.78-8.72,7.55-11,12.48-.93,2-1.26,4.36-2.07,6.42-1.09,2.79-2,4.91-2.2,8-.56,9.73,0,19.66,0,29.4,0,13.24,1.92,3.73-.29,16.69-1.21,7.13-3.31,12.35-3.15,19.72a133.663,133.663,0,0,1-2.44,29.34c-3.91,20.11-4.32,15.29-4.3,35.65,0,2.84-1.33,10.12-.08,13,.52,1.22,4.52,3,5.28,3.44a60.288,60.288,0,0,1,10.35,7.62c7.87,7.61,8.24,14.92,8.21,25.4,0,9.7-3.2,23.48,4.65,30.26,5.15,4.44,12.83,6.46,13.92,13.83,1.69,11.44.16,24.08.1,35.6-.09,18.08,2.64,36,3.75,54,.65,10.47,3.55,20.57,4.42,31,.8,9.41,1.72,18.94,2.13,28.38.76,18-.09,36.17-.09,54.17,0,5.46,1.18,12.49-.72,17.67-2.41,6.56-6.73,12.12-8.69,19a76.719,76.719,0,0,0-2.41,18.48c-.17,5.5-1.68,10.87-1.89,16.41" fill="#ece3dd"/><path d="M1432.16,1247.46c-11.86-10.76-16.15-19.6-24.23-38.89,23.75-41.35,64.29-70.4,106.5-92.57s87.27-38.78,128.49-62.74l-13.15-10.14" fill="none" stroke="#000" stroke-miterlimit="10" stroke-width="2"/><path d="M1433.06,952.34c-3.09-.15-6.47-.42-8.49-2.69-3.32-3.73-1-10.24,1.84-15,16.09-26.64,45-41.41,72-54.56l70.63-34.33c31.59-15.35,66.69-34.54,78.68-68.56" fill="none" stroke="#000" stroke-miterlimit="10" stroke-width="2"/><path d="M1647.84,777.56s-15.43-7.56-6.22-26.58,28.45-29.5,28.45-29.5S1681.7,776.9,1647.84,777.56Z" fill="#384f52" stroke="#000" stroke-linejoin="round" stroke-width="2"/><path d="M1441,917.13s9.08-9.42,19.87-3.38S1474,931.89,1474,931.89,1432.94,938.12,1441,917.13Z" fill="#384f52" stroke="#000" stroke-linejoin="round" stroke-width="2"/><path d="M1607,824.09s-15-2.2-13.7-34.55C1605.17,802.72,1607,824.09,1607,824.09Z" fill="#384f52" stroke="#000" stroke-linejoin="round" stroke-width="2"/><path d="M1625.84,809.88s-12.33-6.52-16.64-20.79,11-43.81,11-43.81S1640.51,777.1,1625.84,809.88Z" fill="#384f52" stroke="#000" stroke-linejoin="round" stroke-width="2"/><path d="M1619.54,816s3.31,25.27,32.94,20.24C1642.47,817.56,1619.54,816,1619.54,816Z" fill="#384f52" stroke="#000" stroke-linejoin="round" stroke-width="2"/><path d="M1478,890.58s11.22,21.86,38.6,7C1500.92,884.07,1478,890.58,1478,890.58Z" fill="#384f52" stroke="#000" stroke-linejoin="round" stroke-width="2"/><path d="M1642.85,788.37s7.08,16.51,33.83,3.81C1673.16,783.3,1642.85,788.37,1642.85,788.37Z" fill="#384f52" stroke="#000" stroke-linejoin="round" stroke-width="2"/><path d="M1576,842.38s-15.76-5.07-9.62-32.35C1580.28,821.45,1585,831.67,1576,842.38Z" fill="#384f52" stroke="#000" stroke-linejoin="round" stroke-width="2"/><path d="M1596.75,831.2s-8.53,20.66,16,28.76C1612.74,831.06,1596.75,831.2,1596.75,831.2Z" fill="#384f52" stroke="#000" stroke-linejoin="round" stroke-width="2"/><path d="M1558.14,851.46s-7,9.86-.35,19.45,23,14.19,23,14.19S1576,859.62,1558.14,851.46Z" fill="#384f52" stroke="#000" stroke-linejoin="round" stroke-width="2"/><path d="M1540.57,859.51s-9.33.73-14.27-10.56,3.46-34.7,3.46-34.7,13.62,18.82,14.51,30.29S1540.57,859.51,1540.57,859.51Z" fill="#384f52" stroke="#000" stroke-linejoin="round" stroke-width="2"/><path d="M1527.45,866.43s-7.33,9.17-3,20.51,18.5,16.52,18.5,16.52S1543.5,875.34,1527.45,866.43Z" fill="#384f52" stroke="#000" stroke-linejoin="round" stroke-width="2"/><path d="M1495.64,881.2s-6.1-10,.75-37.06C1501.62,864.38,1501,877.05,1495.64,881.2Z" fill="#384f52" stroke="#000" stroke-linejoin="round" stroke-width="2"/><path d="M1638.11,1056.15s-9.59,12.14,1.23,25.5,32.84,17.83,32.84,17.83S1660.1,1059.1,1638.11,1056.15Z" fill="#384f52" stroke="#000" stroke-linejoin="round" stroke-width="2"/><path d="M1465.38,897.33s-25.17,1.26-18.37-53.2C1483.71,870.72,1465.38,897.33,1465.38,897.33Z" fill="#384f52" stroke="#000" stroke-linejoin="round" stroke-width="2"/><path d="M1419.84,1189.3s4.11-9.85-4.46-23.36-29.18-17-29.18-17S1386.54,1187.94,1419.84,1189.3Z" fill="#384f52" stroke="#000" stroke-linejoin="round" stroke-width="2"/><path d="M1426.41,934.66a17.32,17.32,0,0,0-10.86-17.21c-12.17-5.27-27.14,8.64-27.14,8.64S1402.87,945.31,1426.41,934.66Z" fill="#384f52" stroke="#000" stroke-linejoin="round" stroke-width="2"/><path d="M1424.57,949.65s-17.44,7.44-25.25,28.6C1420.28,968.66,1424.57,949.65,1424.57,949.65Z" fill="#384f52" stroke="#000" stroke-linejoin="round" stroke-width="2"/><path d="M1635.9,1047.85s-11.68-13.23,11.88-32.33C1653.18,1038.87,1635.9,1047.85,1635.9,1047.85Z" fill="#384f52" stroke="#000" stroke-linejoin="round" stroke-width="2"/><path d="M1591.5,1079.56s-1,20.44,18.14,23.27,38.55-7.07,38.55-7.07S1617.79,1073,1591.5,1079.56Z" fill="#384f52" stroke="#000" stroke-linejoin="round" stroke-width="2"/><path d="M1603.29,1074s-17.69-6.54-4.54-43.61C1609.64,1055,1611.1,1066.09,1603.29,1074Z" fill="#384f52" stroke="#000" stroke-linejoin="round" stroke-width="2"/><path d="M1548.42,1099s-23.45-22.13,13.06-62.6C1565.16,1079.08,1548.42,1099,1548.42,1099Z" fill="#384f52" stroke="#000" stroke-linejoin="round" stroke-width="2"/><path d="M1558.83,1094.53s-6.68,23.3,14.28,36.32C1573.11,1103.34,1558.83,1094.53,1558.83,1094.53Z" fill="#384f52" stroke="#000" stroke-linejoin="round" stroke-width="2"/><path d="M1514.43,1116s-18.28-.72-5.26-33C1523.89,1100.85,1514.43,1116,1514.43,1116Z" fill="#384f52" stroke="#000" stroke-linejoin="round" stroke-width="2"/><path d="M1444.56,1163.54s-39.3-23.25-2.91-72.69C1457.66,1130.85,1453.24,1155.13,1444.56,1163.54Z" fill="#384f52" stroke="#000" stroke-linejoin="round" stroke-width="2"/><path d="M1471.52,1141.94s-15-9.57,4.8-51.09C1483,1120.72,1480.41,1135.43,1471.52,1141.94Z" fill="#384f52" stroke="#000" stroke-linejoin="round" stroke-width="2"/><path d="M1413.41,1221.16s-14.05-12.71-51.41,0C1394.28,1240.1,1413.41,1221.16,1413.41,1221.16Z" fill="#384f52" stroke="#000" stroke-linejoin="round" stroke-width="2"/><path d="M1423.58,1238.41s-15-2.84-15.65,9a37.249,37.249,0,0,0,5.48,20.94S1433.75,1255.66,1423.58,1238.41Z" fill="#384f52" stroke="#000" stroke-linejoin="round" stroke-width="2"/><path d="M1434.12,1173.81s-8.16,22.42,40.8,27.8C1463.89,1176.42,1456.14,1168.37,1434.12,1173.81Z" fill="#384f52" stroke="#000" stroke-linejoin="round" stroke-width="2"/><path d="M1480.08,1136.11s-11.1,25,26.54,34.93C1503.23,1130.57,1480.08,1136.11,1480.08,1136.11Z" fill="#384f52" stroke="#000" stroke-linejoin="round" stroke-width="2"/><path d="M1506.62,1120.2s-6.22,22.26,27.17,25.09C1525.43,1122.64,1506.62,1120.2,1506.62,1120.2Z" fill="#384f52" stroke="#000" stroke-linejoin="round" stroke-width="2"/><path d="M1542.2,408.93c1.12-.4.89-6.68,1-8.24,3.56-43.14,18.32-85.11,30.36-126.4" fill="none" stroke="#000" stroke-linejoin="round" stroke-width="2"/><path d="M1498.89,308.81c7.5,19.38,6.7,42.76,8.19,63.15.69,9.36,1.83,18.79,1.85,28.17,0,2.2-.58,7,.94,8.49" fill="none" stroke="#000" stroke-linejoin="round" stroke-width="2"/><path d="M1554.75,411.44a17.753,17.753,0,0,0,1.17-3.11c7.15-25.73,16.38-50.29,26.45-75" fill="none" stroke="#000" stroke-linejoin="round" stroke-width="2"/><path d="M1551.93,347.41c.62-9.06-8.82-19.49-15.19-24.61-3.24-2.59-6.82-4.7-10.11-7.25-1.59-1.23-3.65-3.45-5.52-3.67,3.83,12.63,6,25.84,20,31,2.54.94,9.24,2.28,9.91,5.51" fill="#384f52" stroke="#000" stroke-linejoin="round" stroke-width="2"/><path d="M1506.42,372.21c-4.65-3.75-13.42-2.49-18.81-1.55a40.123,40.123,0,0,0-11,3.92c-1.83.9-3.75,2.32-5.86,2.33,10.07,3.46,35.66,12.16,35.72-5.64" fill="#384f52" stroke="#000" stroke-linejoin="round" stroke-width="2"/><path d="M1506.73,355.26c.87-5.45,5.39-11.17,8.9-15.2,1.63-1.87,4.29-3.4,4.28-6.05,1.82,7.75,3.78,18.1-4.83,22.65-1.07.56-10.14,3.41-8.66.17" fill="#384f52" stroke="#000" stroke-linejoin="round" stroke-width="2"/><path d="M1566.37,375.66c2.34-.62,4.05-4.33,5.61-5.92,5.76-5.89,10.52-6.11,18.2-7,4.35-.48,8.27-1.21,12.66-1.23,2.11,0,4.43.29,6.27-.84-3,13.61-20.52,18.83-32.52,19.36-5,.22-7.24-1.82-11.19-4a2,2,0,0,1,1.28.27" fill="#384f52" stroke="#000" stroke-linejoin="round" stroke-width="2"/><path d="M1475.23,275.32c1.48-1,10.9-17.59,11-17.63,1.89-.62,8.33,13.76,10.1,15.42" fill="#ce9fb5" stroke="#000" stroke-miterlimit="10" stroke-width="2"/><path d="M1476.29,286.21c-1.42-2.94-10.71-18.61-11.85-21.7,7.63-.6,22.48,2.32,29.93,3.45" fill="#ce9fb5" stroke="#000" stroke-miterlimit="10" stroke-width="2"/><path d="M1484.61,275.07c2.29-2.75,3.22-7.53,5.12-10.68,2.52-4.2,6.63-6.82,9.24-10.67,3.36,7.62,6.26,15,7.53,23.29.78,5.06,2.18,10.59,1.28,15.73s-2.53,10-6.7,13.17" fill="#ce9fb5" stroke="#000" stroke-miterlimit="10" stroke-width="2"/><path d="M1584.88,242.12c-2.11-3-1.31-7.93-3.91-10.84-1.4,2.26-6,8.95-8.8,9.42l-3.61,7.22,10.32,10.21,6-7.38" fill="#ce9fb5" stroke="#000" stroke-miterlimit="10" stroke-width="2"/><path d="M1569.11,271.07c-10.12-9.25-5.36-23.59-3-35.29,3.4.83,6.13,6.62,7.8,9.35,2,3.19,4,6.18,5.06,9.85a30.152,30.152,0,0,1,.74,13.5" fill="#ce9fb5" stroke="#000" stroke-miterlimit="10" stroke-width="2"/><path d="M1584.88,311.88c-.53-1.3,2.66-13.83,3.08-15.42a45.238,45.238,0,0,0,1.21-5.37c3.32,3.4,7.64,7.73,8.9,12.46" fill="#ce9fb5" stroke="#000" stroke-miterlimit="10" stroke-width="2"/><path d="M1588.18,307.56c6.56-4.67,14.7-6,22.35-7.76-.11,1.44-1.24,2.73-1.86,4.05-1.53,3.23-2.41,6.67-3.83,9.93a44.849,44.849,0,0,1-7.73,11.57,31.933,31.933,0,0,1-10.81,7.86" fill="#ce9fb5" stroke="#000" stroke-miterlimit="10" stroke-width="2"/><path d="M1460.6,276c.77.41.85.7,1.51,1.51,3.57,4.37,5.67,10.4,8.48,15.31,2.94,5.13,6.79,11.35,12,14.6a21.731,21.731,0,0,0,9,2.71c7.47.77,12.77-4.46,12.59-12.11s-3.67-15.62-10.47-19.42a40.11,40.11,0,0,0-22.83-5.4c-3.68.27-7.07.68-10.2,2.4a.78.78,0,0,0,.65.17" fill="#ce9fb5" stroke="#000" stroke-miterlimit="10" stroke-width="2"/><path d="M1581.12,299.32c.45,9.29-12.31,26.8-.92,33.73,5.92,3.61,10-1.41,11.38-7.12,2.21-9.11-1.79-22.18-10.23-26.38Z" fill="#ce9fb5" stroke="#000" stroke-miterlimit="10" stroke-width="2"/><path d="M1590.3,240a35.247,35.247,0,0,1-4.8,1.85,35.282,35.282,0,0,0-11.47,7.56,21,21,0,0,0-6.8,15.09c0,4.59,1.36,7.16,5.45,9,1.36.6,3.06,1.39,4.59,1.13,3.83-.66,5.45-6.16,6.57-9.4a118.979,118.979,0,0,0,4.57-19.2c.36-2.07.64-5.15,2.12-6.72" fill="#ce9fb5" stroke="#000" stroke-miterlimit="10" stroke-width="2"/><path d="M1352.18,426.48c6.94-6.12,45.67,5.11,54.59,21.23,6.59,11.92-29.5,16.91-29.5,16.91s-31.21-18.57-29.4-28.44" stroke="#000" stroke-linejoin="round" stroke-width="2"/><path d="M905.59,997.91c1,2.94,7.83,7.2,10.75,9.64,9.42,7.91,12.54,15.12,9.34,27.43" fill="#ece3dd" stroke="#000" stroke-linejoin="round" stroke-width="2"/><path d="M857.57,1025.43c-.21,7.83,2.62,15,4,22.61,1.67,9.06,3.19,18.82,8,26.8,3.27,5.42,8.07,10.59,14.2,9.1,5-1.2,7.85-.46,13.48-.24,7.93.3,9-5.18,14.81-8.24,2.76-1.44,5.73-.46,8.31-2.49,3-2.38,1.58-5.48,3.21-7.94,1.37-2.06,4.66-2.76,6.34-4.65a17.819,17.819,0,0,0,3.46-6.76c3.18-11.21-1.73-17-8-25.06-6.75-8.7-12.49-14.88-15.43-26.42" fill="#ece3dd" stroke="#000" stroke-linejoin="round" stroke-width="2"/><path d="M1148.75,670.17s74-11.23,136.82-129.91C1340.26,437,1352,426.48,1352,426.48s-8.06,21.23,24.22,31.42,31.07-10.19,31.07-10.19,6,7.64-6.15,28-21.15,65.38-86.29,152.83-110,116.72-110,116.72-.16,51.67-2.85,145.67c-46.82,5.95-173.59,9.34-222.44,5.1l4.78-115.53s-79.5,36.64-97,92.86c-13,41.53,33.73,127.56,30.75,131.3s-62.23,36.24-67.93,21.69c-16.36-41.79-54.56-129.22-27.69-186.7C866.64,745.21,949.8,672.43,1043,673.14" fill="#f9acbb" stroke="#000" stroke-linejoin="round" stroke-width="2"/><path d="M1043,673.14s28.17,66.47,75.52,61,30.25-64,30.25-64" fill="#fff" stroke="#000" stroke-linejoin="round" stroke-width="2"/><path d="M1142.1,623.74c1.54-25.54,32.77-18.23,35.74-60.24.15-2.12.16-4.13-1.95-4.42-6.21-.85-14.64-6.1-17.07-27.38-4-34.92-7.94-68.57-24.75-65.23s-15.57,41.61-15.57,41.61-11.14.88-33.55,5.05c-5.6-50.64-42.18-60.54-37.58,6.51,9.69,141.09-4.39,153.5-4.39,153.5s70.76,32.26,105.77-3C1144.68,660.83,1140.66,647.77,1142.1,623.74Z" fill="#ece3dd" stroke="#000" stroke-linejoin="round" stroke-width="2"/><ellipse cx="6.35" cy="6.62" rx="6.35" ry="6.62" transform="translate(1168.52 552.91)" stroke="#000" stroke-linejoin="round" stroke-width="2"/><path d="M1116.53,541.28a6.5,6.5,0,0,1,1.25,2.91,2.2,2.2,0,0,1-1.59,2.42,2.14,2.14,0,0,1-2-1.19,6.462,6.462,0,0,1-.62-2.42,7.567,7.567,0,0,1,.09-2.07c.19-1.18,2-1.07,2.89.35" stroke="#000" stroke-miterlimit="10" stroke-width="2"/><path d="M1136.76,538.24a4.65,4.65,0,0,1,.44,4.38,1.66,1.66,0,0,1-.53.72c-.9.59-1.92-.63-2.21-1.68a11.606,11.606,0,0,1-.45-3.47,1.839,1.839,0,0,1,.45-1.38,1.3,1.3,0,0,1,1.86.49,3.929,3.929,0,0,1,.37,2.18" stroke="#000" stroke-miterlimit="10" stroke-width="2"/><line x2="1.7" y2="13.18" transform="translate(1084.95 513.13)" fill="#ece3dd" stroke="#000" stroke-linejoin="round" stroke-width="2"/><line y1="0.9" x2="11.52" transform="translate(1118.5 507.18)" fill="#ece3dd" stroke="#000" stroke-linejoin="round" stroke-width="2"/><path d="M783.87,1435.54q5.85-7.47,11.52-15.52c3.79-5.36,7.22-9.8,11.19-16.59,5.21-4.32,7.47-10.8,10.84-17.54,3.45-5.66,7.75-15.41,10.51-18.42q5.16-9.4,10.16-19.18c20-39.07,37.89-82.16,53.71-125.75q5.44-15,10.55-30c3.32-16,5.85-22.69,9.88-29.92,3.1-11,6.59-15.78,9.22-29.56,5-12.94,7.14-21,8.55-29q4.11-14.29,7.88-28.11c6.91-25.29,13-49.18,18.19-70.8,2.61-10.8,6.77-15.11,7.18-30.59,2.2-13.44,4.29-19.33,5.88-26.52,1.79-6.48,2-13.49,4.59-21.77.06-4.08,1.93-12.06,3.28-16.37.82-9.87,2.57-9.37,2-10.3.44-2.35.66-3.58.66-3.58l222.44-5.1s3.46,12.69,8.76,35.56c1.32,5.71,2.76,12.06,4.29,19,1.45,6.59,2.76,18.05,4.82,22.6,2,13,5.26,17,5.21,26,2.63,12.65,5.47,20.65,5.43,29,2.8,9,3.67,20.84,5.5,31.94q3.3,20,6.49,41.78,1.58,10.88,3.11,22.19c2.61,8.7,4.56,13.69,3,23,1.76,6.57,0,15.57,2.83,23.74-.92,2.62,1.66,14.24,2,20.3.08,4.09,2.22,16.68,1.47,20.92-1.35,9.44.76,14.21,1.06,21.43,2.37,57.79,1.46,120.31,5.91,180.62h-117.3a1465.484,1465.484,0,0,0,3.38-162.52c-.39-11.28-.93-22.83-1.65-34.56.48-11.8-1.36-26.17-2.73-35.61.21-7,.55-13.15-2.62-22.44-1-9.35-2.23-14.88-3.55-22.27-9.2-51.74-24.41-101.71-34.77-146.83-10.49,38.93-26.46,86.57-44.5,136.12q-5.41,14.86-11,29.91c-3.41,9.06-7.44,21.08-11.39,30a189.3,189.3,0,0,0-11.56,29.85q-5.79,14.83-11.57,29.34c-42.24,106.23-81.42,195.48-81.42,195.48" fill="#3c5459" stroke="#000" stroke-linejoin="round" stroke-width="2"/><line y1="37.27" x2="7.33" transform="translate(1102.74 947.52)" fill="#92b193" stroke="#000" stroke-linejoin="round" stroke-width="2"/><path d="M1396.64,250.67c.58-4.29,4.29-11.44,6-16.15,2.7.28,6.47,4.74,8,6.49s5.59,5.91,6.17,7.94c1.34,4.66-6.06,10-10.55,9.08" fill="#ce9fb5" stroke="#000" stroke-miterlimit="10" stroke-width="2"/><path d="M1423,352.22c-.69-1.28-7.48-19.94-9.63-21.67-2.74-2.2-6.88-1-8.11,1.17-4.33,7.58.94,11,1.16,18.28.17,5.3-2.46,9.83-4.54,14.71-3,6.93-8.3,11.79-13.69,15.27,0,0-17.84,19.85-17.17,35.62s62.31-11.3,62.31-11.3" fill="#ece3dd" stroke="#000" stroke-linejoin="round" stroke-width="2"/><path d="M1429.84,374.85c0-5.06,1.59-11.05-.89-15.37-2.16-3.75-6.72-8.28-10.11-11-2.33-1.89-5.95-3.68-8.69-1.84-4.91,3.31-2.57,12.08,0,16s6.48,4.93,4.17,9.86" fill="#ece3dd" stroke="#000" stroke-linejoin="round" stroke-width="2"/><path d="M1437.87,380.69c-.39-12.95-20.82-11-28.72-7.82-2.25.92-4.76,2.95-5.25,5.68-1,5.78,4.52,5.67,7.31,9" fill="#ece3dd" stroke="#000" stroke-linejoin="round" stroke-width="2"/><path d="M1429.66,395.66c-5,1.64-19.18,5.52-20.92-3.22-1.44-7.27,10-9,14.61-9.83,3.85-.72,12.26-3.39,15.45-.74,2.4,2,1.84,5.8,1.94,8.71.27,8.24-1,14.94-4.94,22.06-6.28,11.32-10.92,21-22.35,27.09-6.4,3.43-10.65,8.55-16.41,12.71-1.92,1.39-1.56,1.47-3.47,1.82,0,0-21.68,3.32-35.46-15.28,2.62-14.14,3.79-31.35,5.35-46.57.68-6.64,2.17-12.51,5.6-18.18a69.267,69.267,0,0,1,6.93-8.78c2.23-2.6,4.48-6.52,7.13-8.48s5.67-1.7,8.94-1.74c5.78-.09,10.07-3.32,15.53-4.51,5-1.09,6.6,3.91,4.28,8.08-2.56,4.6-8,8.82-12.37,11.43-3.18,1.9-7.56,2.48-9.77,5.69-3.19,4.63.53,13,.08,18.65a27,27,0,0,1-3.39,10.84c-2.82,5.21-6.34,6.51-11.23,9.49" fill="#ece3dd" stroke="#000" stroke-linejoin="round" stroke-width="2"/><path d="M1386.16,407.13c.85-.35,1.18-1,2.15-1.67,2-1.3,5.09-1.25,7.35-1.31,7-.18,15.25,2.25,22.1,3.21" fill="none" stroke="#000" stroke-linejoin="round" stroke-width="2"/><path d="M1408.13,292.8c-.1,16.14-2,32.1-.37,48.27.23,2.25.35,4.39.37,6.66" fill="none" stroke="#000" stroke-miterlimit="10" stroke-width="2"/><path d="M1409.33,363.11a77,77,0,0,0,.61,9.1" fill="none" stroke="#000" stroke-miterlimit="10" stroke-width="2"/><path d="M1413.55,397.63c-.12,3.38,1,7.05,1.79,10.28,3.12,13.63,7.85,27.57,12.58,40.69,3.92,10.86,10.24,21,13.32,32.2" fill="none" stroke="#000" stroke-miterlimit="10" stroke-width="2"/><path d="M1407.23,321.85c-.17-7.61-14.58-12.85-20.2-14.27-4.36-1.09-10.45-3.2-14.94-2.63,3.3,3.18,4.33,8.31,7.16,11.87,3.56,4.48,8.06,7.38,13.6,8C1397.1,325.3,1403.86,324.93,1407.23,321.85Z" fill="#384f52" stroke="#000" stroke-linejoin="round" stroke-width="2"/><path d="M1404.23,252.72c3.92-4.4,7.83-8.95,13.6-11.95,3.26-1.71,6.91-4.37,10.42-5.49-.71,3-.32,5.94.09,9.06a48.68,48.68,0,0,1-.61,15.62c-1.56,8.51-3,16.05-6.94,23.77-1.7,3.3-7.78,8.73-11.89,9.07" fill="#ce9fb5" stroke="#000" stroke-miterlimit="10" stroke-width="2"/><path d="M1407.66,292.81c-20.22-1.69-12.67-34.35-19.42-49.72,6.21.71,14.55,8.45,18.53,12.56,5.06,5.2,7.17,11,8.44,17.52a24.86,24.86,0,0,1-1.84,15.61C1412.5,290.68,1411.17,293.1,1407.66,292.81Z" fill="#ce9fb5" stroke="#000" stroke-miterlimit="10" stroke-width="2"/><path d="M981,782.1c8.06-3.7,16-8.08,24.38-11.06" fill="none" stroke="#000" stroke-miterlimit="10" stroke-width="2"/><path d="M1204.45,731c.55,1.45.23,3.36.22,4.92v15.09" fill="none" stroke="#000" stroke-miterlimit="10" stroke-width="2"/><path d="M998.1,915.17c20.78,0,41.52.41,62.3.94" fill="none" stroke="#000" stroke-linejoin="round" stroke-width="2"/><path d="M1157,916.11c14.62-4.15,29.59-3,44.24-8.47" fill="none" stroke="#000" stroke-linejoin="round" stroke-width="2"/><path d="M996,900c-2.53,7.52-3.3,16.12-4.23,24-2,16.89-5.51,32.5-9,49.12-4.56,21.63-11.06,42.85-15.33,64.59-4,20.07-9.64,40.57-15.41,60.38-4,13.81-9.3,29.26-10.94,43.46-.68,6,1.29,11.52.93,18-.64,11.37-8.68,5.91-13.62,13.47-3.74,5.73,3.39,11.23,3,17.34-.58,8.62-6.67,7-10.06,13.55-.44-2.63-1.05-5.23-1.41-7.82-5,.75-6.58,10.52-7.63,14.78-2.68,10.87-4.36,22.28-6.67,33.26-1.84,8.72-2.14,17.26-4.91,25.85-3,9.32-7.42,18-11.12,27.06-6.92,17-8.69,35.42-17.65,51.6-5.22,9.44-11.48,18.35-17.47,27.27-1.15,1.72-2.35,5.13-4.17,6-3.33,1.66-5.12-1.22-7.64,2-1.64,2.08-.65,8.94-1.42,11.88a30.6,30.6,0,0,1-5.45,11.5,2.171,2.171,0,0,1,1.56-2" fill="none" stroke="#000" stroke-linejoin="round" stroke-width="2"/><path d="M1054.71,755.35c9.82,6.76,16.21,10.95,29.7,11.1,45.85.52,69.9-34.92,93.63-69.1" fill="none" stroke="#000" stroke-linejoin="round" stroke-width="2"/><path d="M1330,515.35c28.59,1.16,50-17,68.67-35.33" fill="none" stroke="#000" stroke-linejoin="round" stroke-width="2"/><path d="M908,827.35c-16.66,12.1-27.17,35.71-33,54.74-1.94,6.38-8.73,32.47-1.22,38.52,3.68,3,4.14-1.9,4.7-5.52,1.57-10.15-.48-20.83.81-31.07" fill="none" stroke="#000" stroke-linejoin="round" stroke-width="2"/><path d="M1146.71,1128c1.8,5.19,1.33,13.74,5.69,19.25,5.78,7.31,11.69,5.24,20.17,5.89-.07.43,0,2.21,0,2.69-7.29,1.7-14.5,3.73-17.82,10.92,2.24.14,4.71,2.23,6.87,2.45-1,2.9-4.69,3.68-5.72,6a63.389,63.389,0,0,0-5.17,23.77" fill="none" stroke="#000" stroke-linejoin="round" stroke-width="2"/><path d="M1526.61,407.36Z" fill="#e6ab55" stroke="#000" stroke-linejoin="round" stroke-width="2"/><path d="M1413.51,402c-4.81,0-8.93,1.81-13.64,2-11,.45-22-1.55-32.94-1-8.83.41-17.54,2.14-26.33,2.93-4.25.38-7.52.92-10.54-2.29-4-4.28-3.28-6.91-10.34-7.47-6.67-.53-13,.94-19.68,1-4.77,0-11.08,1.14-13.64-3.65-2.23-4.2-.13-8.64-4.36-12.5-5.48-5-13.49-4.14-20.15-5.46-3.81-.76-6.76-2.72-10.25-4.06-.46-17.32-17.48-14.6-28.68-21.83,4.06-.59,13.88-5.21,9.92-10.52-2.47-3.32-19.87-.48-23-.39-10,.27-20.18,1.24-29.65,4.78-7.73,2.88-19.21,10.82-20.8,20-.43,2.43,1.39,6.63.3,8.77-2.4,4.67-14.14,5.62-18.34,5.53-6.89-.15-13.83-.82-20.62.38-7.69,1.36-15.23,3-23,4.11-10.22,1.49-19.87,6-30.21,6.67-5.51.37-12.12-.6-18.58-.91-.08.09-.17.17-.24.26,19.17,9,40.27,2.64,60.46,5.5,23.07.44,52.11-4.9,72.85,5.44,5.92,2.94,8.8,8.63,14.28,11.37,9.89,4.92,24.2,2.81,34.75,2.18,11.2-.67,21.79.32,33,1.11,6.79.48,20-1.7,26.23,2,3.55,2.13,3.88,7.13,7.09,9.24,4.27,2.8,11.85,2.14,16.85,2.12,14.9-.07,28-6.83,42.41-8.84,11.82-1.65,24.28-3.46,36.2-4,8.62-.4,15,1,23.34-2.07,6.52-2.39,11.89-6.82,18-9.93C1427.22,402,1420.12,402,1413.51,402Z" opacity="0.15"/><path d="M459.24,547.17c-27.9-.84-22.28-17.68,3-20.67,17.73-2.09,64.05-3.32,76.74-15.6,13.48-13-8.43-9.49-8.87-18.69-.55-11.54,41.47-15.08,47.34-26.15,6-11.28-7.17-13.42,6.79-23.07,9.3-6.43,23.05-7.6,30.94-16,7.17-7.64,3.54-11.78,6.21-19.49,6.25-18,24.26-32.93,42.46-44.63,32.28-20.73,68.08-22.94,98.14,1.22,8.3,6.68,11.64,11.85,14.24,20.47,3.57,11.86-.87,10.47,14.31,16.81,13.31,5.56,32.29,7.46,42.86,16.4,14.57,12.31,10,33.56,8.1,49.1-.78,6.54-4,12.58,1.22,17.38,9,8.26,28.18,4,35.87,17.48,7.52,13.2-5.24,15,13.1,21.22,13,4.41,25,3,37.89,8.09,14.53,5.79,32.84,12.31,42.57,22.46-21.95,1.09-43.85.2-65.77,1.89-18.42,1.42-40.67-1.48-58.46,2.09-19.92,4-19.28,18.74-40.72,22.19-22.8,3.68-46,7.44-68.84,10-13.52,1.5-38.82,8-51.34,2.39-8.79-3.91-5.16-9-15.41-12.52-13.84-4.71-39.69-1.6-55.39-4-11.74-1.77-24.32-3.36-34.38-8.95-7.22-4-3.37-7.48-11.78-10-9.05-2.74-21.69.55-31.33-.2C530.89,555.75,518.11,548.93,459.24,547.17Z" fill="#fff" stroke="#000" stroke-miterlimit="10" stroke-width="2"/><g opacity="0.15"><path d="M949.13,539c-29.08-5.32-63.2-.35-90.1-9.31-1-6.86,8.33-14.13,5.46-19.78-4.09-8.06-24-3.82-32.73-4.38,5.78-13.37-3.64-34.58-15.89-43.75-17.49-13.1-73.39-10.77-84.87,9.33-9.54,16.71,2.73,7.52,4.87,21.77,2,13.52-13.19,14.1-22.29,20s-9.15,13.28-23.12,17c-18.79,4.93-41.49-.49-59.31,4.3,15,14.19-68.42,12.57-73,12.7-8.93.24-71.72-7.85-81.25,1.07,43.92,2.44,54.86,7.91,61.87,8.45,9.64.75,22.28-2.54,31.33.2,8.41,2.54,4.56,6,11.78,10,10.06,5.59,22.64,7.17,34.38,8.95,15.7,2.37,41.55-.74,55.39,4,10.25,3.49,6.62,8.61,15.41,12.52,12.52,5.57,37.82-.89,51.34-2.39,22.81-2.54,46-6.3,68.84-10,21.44-3.45,20.8-18.19,40.72-22.19,17.79-3.57,40-.67,58.46-2.09,21.92-1.69,43.82-.8,65.77-1.89C966.56,547.62,958.09,543,949.13,539Z"/></g><path d="M1072.09,485.51a11.37,11.37,0,0,0-4.75-4.21c-4.27-1.95-5.45.69-5.63,4.68-.36,7.47,2.25,13,7.36,18.13a20.863,20.863,0,0,0-3.83,3.46c1.92.78,4.29,1,6,2.19-.84,2.66-4.38,3.75-4.52,6.7,0,.84.85,1.15.92,1.75a8.868,8.868,0,0,1-.47,2.82,7.36,7.36,0,0,0,4.48-.91" fill="none" stroke="#000" stroke-linecap="round" stroke-linejoin="round" stroke-width="2"/><path d="M1142,476.57c-1.27-3.55-7.59-2.64-8.42,1-.69,3.07,1.23,4.77,2.34,7.2,1,2.22.19,3.11-.74,5.32-.2.46-1,1.75-.8,2.27.3.89,1.51.36,1.89.92,1,1.49.74,1.57,0,3.69-1,2.6-1.33,6-2.67,8.36.54-1,3-.87,4.35-1.39-1,1.28-2.23,2.4-2.73,3.91,3.31.13,6.35.71,9.64,1" fill="none" stroke="#000" stroke-linecap="round" stroke-linejoin="round" stroke-width="2"/><path d="M1739.21,1499.44V1375.25L1349.14,1268.4,440.67,1499.44" fill="#fff" stroke="#000" stroke-linejoin="round" stroke-width="2"/><path d="M1739.21,1499.44V1344.09l-390.07-75.69v231.04" fill="#ece3dd" stroke="#000" stroke-miterlimit="10" stroke-width="2"/><line y2="153.01" transform="translate(1042.31 1346.43)" fill="none" stroke="#000" stroke-miterlimit="10" stroke-width="2"/><line y2="76.94" transform="translate(743.19 1422.5)" fill="none" stroke="#000" stroke-miterlimit="10" stroke-width="2"/></g></svg>