<svg xmlns="http://www.w3.org/2000/svg" width="1299.786" height="1266.964" viewBox="0 0 1299.786 1266.964"><g transform="translate(-269.424 -295.445)"><g transform="translate(-171 62)"><path d="M734.11,1145.68a16,16,0,0,1-7.85-30h0c1-.54,95-54.5,87.67-133.07-7.58-81.18-59.88-101.12-62.11-101.93h.13l10.44-30.27c3,1,73.83,26.61,83.41,129.17,3.89,41.66-13.1,83.4-49.15,120.69a264.134,264.134,0,0,1-54.73,43.28,15.88,15.88,0,0,1-7.81,2.13Z"/><path d="M592.94,1292.7c6.49,7,12.6,12.73,18.48,20.22,41.69,53.15,7,136.54-16.59,167.29" fill="none" stroke="#000" stroke-linejoin="round" stroke-width="45"/><path d="M673.84,1287.68c2.77,1.88,5.85,3,8.88,4.37a129.909,129.909,0,0,1,31.9,20.88c35.39,30.93,50,72.31,56.67,117.4" fill="none" stroke="#000" stroke-linejoin="round" stroke-width="45"/><path d="M619.45,1081.26V1308.4H750.33V1108.74Z" fill="#9e7842" stroke="#000" stroke-linejoin="round" stroke-width="2"/><path d="M619.45,1081.26l-55.55,27.48V1308.4h55.55Z" fill="#e6ab55" stroke="#000" stroke-linejoin="round" stroke-width="2"/><path d="M737.53,1018c0,12-5.48,21.71-12.24,21.71-14.29,0-12.24-9.72-12.24-21.71s.54-24.24,12.24-21.71C731.9,997.72,737.53,1006,737.53,1018Z" fill="#9e7842" stroke="#000" stroke-linejoin="round" stroke-width="2"/><ellipse cx="58.82" cy="79.52" rx="58.82" ry="79.52" transform="matrix(0.144, -0.99, 0.99, 0.144, 567.277, 1058.957)" fill="#e6ab55" stroke="#000" stroke-linejoin="round" stroke-width="2"/><ellipse cx="49.65" cy="65.13" rx="49.65" ry="65.13" transform="translate(592.96 1046.128) rotate(-76)" fill="#9e7842"/><path d="M602.59,810.85a11.74,11.74,0,0,0-4.84-1.16c5.38-7.61,13.46-13.42,19.92-20,4.67-4.78,8.48-10.28,13.27-14.92,1.76-1.71,9.36-6.71,10.86-2.15" fill="#e6ab55" stroke="#000" stroke-linejoin="round" stroke-width="2"/><path d="M613.14,809.26a68.012,68.012,0,0,1-7.48-1.7c1.83-4,7.06-7.39,10.2-10.31,6.3-5.86,10.92-12.93,16.35-19.5a75.648,75.648,0,0,1,12-11c1.68-1.3,5-2.91,7.18-1.72,3.1,1.69,1.21,6,.63,8.59" fill="#e6ab55" stroke="#000" stroke-linejoin="round" stroke-width="2"/><path d="M628.41,812.2c-4.12.11-7.84-3.15-11.95-2.68.86-3.12,4.57-6.46,6.58-8.91,5.25-6.42,9.84-13.72,15.43-19.81a96.852,96.852,0,0,1,13.65-12.23c1.88-1.39,4.83-3.9,6.94-1.91,3.66,3.45-2.62,11.56-4,13.87" fill="#e6ab55" stroke="#000" stroke-linejoin="round" stroke-width="2"/><path d="M626.45,806.93a8,8,0,0,0,1.77-1.84c3.79-4.41,7.87-8.54,11.71-12.91,4.88-5.57,9.53-11.3,14.75-16.55,2-2,4.67-5.54,7.29-6.74,7.86-3.6,3.26,7.67,1.53,10.56A311.316,311.316,0,0,1,640,813.11" fill="#e6ab55" stroke="#000" stroke-linejoin="round" stroke-width="2"/><path d="M602.52,852.42c3.23.21,6.72-1,9.71-2a50.09,50.09,0,0,0,20.85-13.13c4.91-5.15,7.45-9.06,8.48-16.62a23.72,23.72,0,0,0-.95-11.37c-4-10.81-17.55-12-27.24-9.79-10.24,2.38-21.22,9.46-27.22,18.21" fill="#e6ab55" stroke="#000" stroke-linejoin="round" stroke-width="2"/><ellipse cx="11.16" cy="19.68" rx="11.16" ry="19.68" transform="matrix(0.909, -0.417, 0.417, 0.909, 578.222, 820.808)" fill="#e6ab55" stroke="#000" stroke-linejoin="round" stroke-width="2"/><path d="M727.14,824.25c-20.72,13.06-.54,27.39,3.47,36.91,2.7,6.44,9.93,13.42,14.4,15.92l.08-.07c4.15,2.72,10.25,3.3,17.24-2.9,7.28-6.46,11.29-15.17,9.91-20.75-.38-3.39-2-6.68-3.33-9.51-3.85-7.94-8.57-14-15.2-18.74-5.46-3.9-9.4-5.59-16.42-4.76A24.56,24.56,0,0,0,727.14,824.25Z" fill="#e6ab55" stroke="#000" stroke-linejoin="round" stroke-width="2"/><path d="M591.69,1136.87a10.986,10.986,0,0,1-1.51-.07c-1.2-.12-29.91-3-58.53-22.63-26.43-18.14-58-54.34-58.33-123.81-.21-44.87,19-88.25,55.59-125.45,27.06-27.52,54.1-42.07,55.24-42.68,7.8-4.15,14-.41,18.13,7.39s4.72,16.72-3.08,20.87A224,224,0,0,0,551.11,888c-30.55,31.33-45.95,65.72-45.78,102.21.21,44.65,15.16,77.48,44.44,97.57a104.753,104.753,0,0,0,43.39,17.14c8.8.82,12.77,8.72,12,17.52C604.33,1130.74,599.86,1136.87,591.69,1136.87Z"/><path d="M682.73,1040A64.911,64.911,0,0,1,644,1026.55a5.665,5.665,0,0,1,7-8.91c15.25,11.89,39.58,16.36,53.92,3.26a5.65,5.65,0,1,1,7.62,8.34C704.23,1036.79,693.63,1040,682.73,1040Z" fill="#d20a11" stroke="#000" stroke-miterlimit="10" stroke-width="2"/><path d="M647.48,1022.09c18.2,14.19,45.42,17.4,61.2,3" fill="none" stroke="#000" stroke-miterlimit="10" stroke-width="2"/><ellipse cx="10.67" cy="12.76" rx="10.67" ry="12.76" transform="translate(636.81 973.94)" fill="#d20a11" stroke="#000" stroke-miterlimit="10" stroke-width="2"/><ellipse cx="10.67" cy="12.76" rx="10.67" ry="12.76" transform="translate(695.18 981.16)" fill="#d20a11" stroke="#000" stroke-miterlimit="10" stroke-width="2"/><path d="M1352.18,426.48c6.94-6.12,45.67,5.11,54.59,21.23,6.59,11.92-29.5,16.91-29.5,16.91s-31.21-18.57-29.4-28.44" stroke="#000" stroke-linejoin="round" stroke-width="2"/><path d="M905.59,997.91c1,2.94,7.83,7.2,10.75,9.64,9.42,7.91,12.54,15.12,9.34,27.43" fill="#ece3dd" stroke="#000" stroke-linejoin="round" stroke-width="2"/><path d="M857.57,1025.43c-.21,7.83,2.62,15,4,22.61,1.67,9.06,3.19,18.82,8,26.8,3.27,5.42,8.07,10.59,14.2,9.1,5-1.2,7.85-.46,13.48-.24,7.93.3,9-5.18,14.81-8.24,2.76-1.44,5.73-.46,8.31-2.49,3-2.38,1.58-5.48,3.21-7.94,1.37-2.06,4.66-2.76,6.34-4.65a17.819,17.819,0,0,0,3.46-6.76c3.18-11.21-1.73-17-8-25.06-6.75-8.7-12.49-14.88-15.43-26.42" fill="#ece3dd" stroke="#000" stroke-linejoin="round" stroke-width="2"/><path d="M1148.75,670.17s74-11.23,136.82-129.91C1340.26,437,1352,426.48,1352,426.48s-8.06,21.23,24.22,31.42,31.07-10.19,31.07-10.19,6,7.64-6.15,28-21.15,65.38-86.29,152.83-110,116.72-110,116.72-.16,51.67-2.85,145.67c-46.82,5.95-173.59,9.34-222.44,5.1l4.78-115.53s-79.5,36.64-97,92.86c-13,41.53,33.73,127.56,30.75,131.3s-62.23,36.24-67.93,21.69c-16.36-41.79-54.56-129.22-27.69-186.7C866.64,745.21,949.8,672.43,1043,673.14" fill="#819aff" stroke="#000" stroke-linejoin="round" stroke-width="2"/><path d="M1043,673.14s28.17,66.47,75.52,61,30.25-64,30.25-64" fill="#fff" stroke="#000" stroke-linejoin="round" stroke-width="2"/><path d="M1142.1,623.74c1.54-25.54,32.77-18.23,35.74-60.24.15-2.12.16-4.13-1.95-4.42-6.21-.85-14.64-6.1-17.07-27.38-4-34.92-7.94-68.57-24.75-65.23s-15.57,41.61-15.57,41.61-11.14.88-33.55,5.05c-5.6-50.64-42.18-60.54-37.58,6.51,9.69,141.09-4.39,153.5-4.39,153.5s70.76,32.26,105.77-3C1144.68,660.83,1140.66,647.77,1142.1,623.74Z" fill="#ece3dd" stroke="#000" stroke-linejoin="round" stroke-width="2"/><ellipse cx="6.35" cy="6.62" rx="6.35" ry="6.62" transform="translate(1168.52 552.91)" stroke="#000" stroke-linejoin="round" stroke-width="2"/><path d="M1116.53,541.28a6.5,6.5,0,0,1,1.25,2.91,2.2,2.2,0,0,1-1.59,2.42,2.14,2.14,0,0,1-2-1.19,6.462,6.462,0,0,1-.62-2.42,7.567,7.567,0,0,1,.09-2.07c.19-1.18,2-1.07,2.89.35" stroke="#000" stroke-miterlimit="10" stroke-width="2"/><path d="M1136.76,538.24a4.65,4.65,0,0,1,.44,4.38,1.66,1.66,0,0,1-.53.72c-.9.59-1.92-.63-2.21-1.68a11.606,11.606,0,0,1-.45-3.47,1.839,1.839,0,0,1,.45-1.38,1.3,1.3,0,0,1,1.86.49,3.929,3.929,0,0,1,.37,2.18" stroke="#000" stroke-miterlimit="10" stroke-width="2"/><line x2="1.7" y2="13.18" transform="translate(1084.95 513.13)" fill="#ece3dd" stroke="#000" stroke-linejoin="round" stroke-width="2"/><line y1="0.9" x2="11.52" transform="translate(1118.5 507.18)" fill="#ece3dd" stroke="#000" stroke-linejoin="round" stroke-width="2"/><path d="M783.87,1435.54q5.85-7.47,11.52-15.52c3.79-5.36,7.22-9.8,11.19-16.59,5.21-4.32,7.47-10.8,10.84-17.54,3.45-5.66,7.75-15.41,10.51-18.42q5.16-9.4,10.16-19.18c20-39.07,37.89-82.16,53.71-125.75q5.44-15,10.55-30c3.32-16,5.85-22.69,9.88-29.92,3.1-11,6.59-15.78,9.22-29.56,5-12.94,7.14-21,8.55-29q4.11-14.29,7.88-28.11c6.91-25.29,13-49.18,18.19-70.8,2.61-10.8,6.77-15.11,7.18-30.59,2.2-13.44,4.29-19.33,5.88-26.52,1.79-6.48,2-13.49,4.59-21.77.06-4.08,1.93-12.06,3.28-16.37.82-9.87,2.57-9.37,2-10.3.44-2.35.66-3.58.66-3.58l222.44-5.1s3.46,12.69,8.76,35.56c1.32,5.71,2.76,12.06,4.29,19,1.45,6.59,2.76,18.05,4.82,22.6,2,13,5.26,17,5.21,26,2.63,12.65,5.47,20.65,5.43,29,2.8,9,3.67,20.84,5.5,31.94q3.3,20,6.49,41.78,1.58,10.88,3.11,22.19c2.61,8.7,4.56,13.69,3,23,1.76,6.57,0,15.57,2.83,23.74-.92,2.62,1.66,14.24,2,20.3.08,4.09,2.22,16.68,1.47,20.92-1.35,9.44.76,14.21,1.06,21.43,2.37,57.79,1.46,120.31,5.91,180.62h-117.3a1465.484,1465.484,0,0,0,3.38-162.52c-.39-11.28-.93-22.83-1.65-34.56.48-11.8-1.36-26.17-2.73-35.61.21-7,.55-13.15-2.62-22.44-1-9.35-2.23-14.88-3.55-22.27-9.2-51.74-24.41-101.71-34.77-146.83-10.49,38.93-26.46,86.57-44.5,136.12q-5.41,14.86-11,29.91c-3.41,9.06-7.44,21.08-11.39,30a189.3,189.3,0,0,0-11.56,29.85q-5.79,14.83-11.57,29.34c-42.24,106.23-81.42,195.48-81.42,195.48" fill="#9ca467" stroke="#000" stroke-linejoin="round" stroke-width="2"/><line y1="37.27" x2="7.33" transform="translate(1102.74 947.52)" fill="#92b193" stroke="#000" stroke-linejoin="round" stroke-width="2"/><path d="M1396.64,250.67c.58-4.29,4.29-11.44,6-16.15,2.7.28,6.47,4.74,8,6.49s5.59,5.91,6.17,7.94c1.34,4.66-6.06,10-10.55,9.08" fill="#ce9fb5" stroke="#000" stroke-miterlimit="10" stroke-width="2"/><path d="M1423,352.22c-.69-1.28-7.48-19.94-9.63-21.67-2.74-2.2-6.88-1-8.11,1.17-4.33,7.58.94,11,1.16,18.28.17,5.3-2.46,9.83-4.54,14.71-3,6.93-8.3,11.79-13.69,15.27,0,0-17.84,19.85-17.17,35.62s62.31-11.3,62.31-11.3" fill="#ece3dd" stroke="#000" stroke-linejoin="round" stroke-width="2"/><path d="M1429.84,374.85c0-5.06,1.59-11.05-.89-15.37-2.16-3.75-6.72-8.28-10.11-11-2.33-1.89-5.95-3.68-8.69-1.84-4.91,3.31-2.57,12.08,0,16s6.48,4.93,4.17,9.86" fill="#ece3dd" stroke="#000" stroke-linejoin="round" stroke-width="2"/><path d="M1437.87,380.69c-.39-12.95-20.82-11-28.72-7.82-2.25.92-4.76,2.95-5.25,5.68-1,5.78,4.52,5.67,7.31,9" fill="#ece3dd" stroke="#000" stroke-linejoin="round" stroke-width="2"/><path d="M1429.66,395.66c-5,1.64-19.18,5.52-20.92-3.22-1.44-7.27,10-9,14.61-9.83,3.85-.72,12.26-3.39,15.45-.74,2.4,2,1.84,5.8,1.94,8.71.27,8.24-1,14.94-4.94,22.06-6.28,11.32-10.92,21-22.35,27.09-6.4,3.43-10.65,8.55-16.41,12.71-1.92,1.39-1.56,1.47-3.47,1.82,0,0-21.68,3.32-35.46-15.28,2.62-14.14,3.79-31.35,5.35-46.57.68-6.64,2.17-12.51,5.6-18.18a69.267,69.267,0,0,1,6.93-8.78c2.23-2.6,4.48-6.52,7.13-8.48s5.67-1.7,8.94-1.74c5.78-.09,10.07-3.32,15.53-4.51,5-1.09,6.6,3.91,4.28,8.08-2.56,4.6-8,8.82-12.37,11.43-3.18,1.9-7.56,2.48-9.77,5.69-3.19,4.63.53,13,.08,18.65a27,27,0,0,1-3.39,10.84c-2.82,5.21-6.34,6.51-11.23,9.49" fill="#ece3dd" stroke="#000" stroke-linejoin="round" stroke-width="2"/><path d="M1386.16,407.13c.85-.35,1.18-1,2.15-1.67,2-1.3,5.09-1.25,7.35-1.31,7-.18,15.25,2.25,22.1,3.21" fill="none" stroke="#000" stroke-linejoin="round" stroke-width="2"/><path d="M1408.13,292.8c-.1,16.14-2,32.1-.37,48.27.23,2.25.35,4.39.37,6.66" fill="none" stroke="#000" stroke-miterlimit="10" stroke-width="2"/><path d="M1409.33,363.11a77,77,0,0,0,.61,9.1" fill="none" stroke="#000" stroke-miterlimit="10" stroke-width="2"/><path d="M1413.55,397.63c-.12,3.38,1,7.05,1.79,10.28,3.12,13.63,7.85,27.57,12.58,40.69,3.92,10.86,10.24,21,13.32,32.2" fill="none" stroke="#000" stroke-miterlimit="10" stroke-width="2"/><path d="M1407.23,321.85c-.17-7.61-14.58-12.85-20.2-14.27-4.36-1.09-10.45-3.2-14.94-2.63,3.3,3.18,4.33,8.31,7.16,11.87,3.56,4.48,8.06,7.38,13.6,8C1397.1,325.3,1403.86,324.93,1407.23,321.85Z" fill="#384f52" stroke="#000" stroke-linejoin="round" stroke-width="2"/><path d="M1404.23,252.72c3.92-4.4,7.83-8.95,13.6-11.95,3.26-1.71,6.91-4.37,10.42-5.49-.71,3-.32,5.94.09,9.06a48.68,48.68,0,0,1-.61,15.62c-1.56,8.51-3,16.05-6.94,23.77-1.7,3.3-7.78,8.73-11.89,9.07" fill="#ce9fb5" stroke="#000" stroke-miterlimit="10" stroke-width="2"/><path d="M1407.66,292.81c-20.22-1.69-12.67-34.35-19.42-49.72,6.21.71,14.55,8.45,18.53,12.56,5.06,5.2,7.17,11,8.44,17.52a24.86,24.86,0,0,1-1.84,15.61C1412.5,290.68,1411.17,293.1,1407.66,292.81Z" fill="#ce9fb5" stroke="#000" stroke-miterlimit="10" stroke-width="2"/><path d="M981,782.1c8.06-3.7,16-8.08,24.38-11.06" fill="none" stroke="#000" stroke-miterlimit="10" stroke-width="2"/><path d="M1204.45,731c.55,1.45.23,3.36.22,4.92v15.09" fill="none" stroke="#000" stroke-miterlimit="10" stroke-width="2"/><path d="M998.1,915.17c20.78,0,41.52.41,62.3.94" fill="none" stroke="#000" stroke-linejoin="round" stroke-width="2"/><path d="M1157,916.11c14.62-4.15,29.59-3,44.24-8.47" fill="none" stroke="#000" stroke-linejoin="round" stroke-width="2"/><path d="M996,900c-2.53,7.52-3.3,16.12-4.23,24-2,16.89-5.51,32.5-9,49.12-4.56,21.63-11.06,42.85-15.33,64.59-4,20.07-9.64,40.57-15.41,60.38-4,13.81-9.3,29.26-10.94,43.46-.68,6,1.29,11.52.93,18-.64,11.37-8.68,5.91-13.62,13.47-3.74,5.73,3.39,11.23,3,17.34-.58,8.62-6.67,7-10.06,13.55-.44-2.63-1.05-5.23-1.41-7.82-5,.75-6.58,10.52-7.63,14.78-2.68,10.87-4.36,22.28-6.67,33.26-1.84,8.72-2.14,17.26-4.91,25.85-3,9.32-7.42,18-11.12,27.06-6.92,17-8.69,35.42-17.65,51.6-5.22,9.44-11.48,18.35-17.47,27.27-1.15,1.72-2.35,5.13-4.17,6-3.33,1.66-5.12-1.22-7.64,2-1.64,2.08-.65,8.94-1.42,11.88a30.6,30.6,0,0,1-5.45,11.5,2.171,2.171,0,0,1,1.56-2" fill="none" stroke="#000" stroke-linejoin="round" stroke-width="2"/><path d="M1054.71,755.35c9.82,6.76,16.21,10.95,29.7,11.1,45.85.52,69.9-34.92,93.63-69.1" fill="none" stroke="#000" stroke-linejoin="round" stroke-width="2"/><path d="M1330,515.35c28.59,1.16,50-17,68.67-35.33" fill="none" stroke="#000" stroke-linejoin="round" stroke-width="2"/><path d="M908,827.35c-16.66,12.1-27.17,35.71-33,54.74-1.94,6.38-8.73,32.47-1.22,38.52,3.68,3,4.14-1.9,4.7-5.52,1.57-10.15-.48-20.83.81-31.07" fill="none" stroke="#000" stroke-linejoin="round" stroke-width="2"/><path d="M1146.71,1128c1.8,5.19,1.33,13.74,5.69,19.25,5.78,7.31,11.69,5.24,20.17,5.89-.07.43,0,2.21,0,2.69-7.29,1.7-14.5,3.73-17.82,10.92,2.24.14,4.71,2.23,6.87,2.45-1,2.9-4.69,3.68-5.72,6a63.389,63.389,0,0,0-5.17,23.77" fill="none" stroke="#000" stroke-linejoin="round" stroke-width="2"/><path d="M1526.61,407.36Z" fill="#e6ab55" stroke="#000" stroke-linejoin="round" stroke-width="2"/><path d="M632.11,834.92c2.48-1.26,5.23-2.15,7.79-3.73a86.648,86.648,0,0,0,16.83-13.41c2.15-2.19,12.54-11,8.11-15.24-2.53-2.45-10.64,2.14-13,3.31-5.36,2.71-10.45,5.88-15.54,9.09-5.28,3.34-13.12,9.35-9.42,16.29C627.72,832.72,630.14,835.71,632.11,834.92Z" fill="#e6ab55" stroke="#000" stroke-linejoin="round" stroke-width="2"/><path d="M599.51,997c0,12-5.48,21.71-12.24,21.71C573,1018.69,575,1009,575,997s.53-24.24,12.24-21.7C593.87,976.71,599.51,985,599.51,997Z" fill="#9e7842" stroke="#000" stroke-linejoin="round" stroke-width="2"/><ellipse cx="12.24" cy="21.71" rx="12.24" ry="21.71" transform="translate(570.35 974.85)" fill="#e6ab55" stroke="#000" stroke-linejoin="round" stroke-width="2"/><path d="M708.39,790.3c-3.49,1.83-1.46,8.21-.53,11.68,1.78,6.59,4.56,12.83,6.22,19.44.78,3.09,1.51,6.39,2.6,9.39a16.941,16.941,0,0,0,2.51,4.24c1.79,1.43,6.45-8.6,6.37-9.57-.18-2-11.38-29.3-12.36-31.36S710.54,789.18,708.39,790.3Z" fill="#e6ab55" stroke="#000" stroke-linejoin="round" stroke-width="2"/><path d="M710,780.72c-3.89,2-1.63,9.13-.59,13,2,7.31,5.06,14.26,6.91,21.6a107.509,107.509,0,0,0,2.89,10.44c.33.9,1.93,4.69,2.72,5.32,2,1.59,8.8-5.42,8.71-6.49-.2-2.23-14.21-37.33-15.3-39.62S712.35,779.47,710,780.72Z" fill="#e6ab55" stroke="#000" stroke-linejoin="round" stroke-width="2"/><path d="M715.58,772.05c-4.52,2.36-1.89,10.62-.69,15.1,2.29,8.51,5.89,16.58,8,25.13a124.491,124.491,0,0,0,3.36,12.13,7.51,7.51,0,0,0,1.88,3.24c2.31,1.85,11.51-3.36,11.4-4.6-.23-2.59-16.51-43.4-17.78-46.06S718.34,770.6,715.58,772.05Z" fill="#e6ab55" stroke="#000" stroke-linejoin="round" stroke-width="2"/><path d="M763.13,841.23c.15-11-1.7-22.11-3.61-33-.62-3.51-1.79-7.32-4.09-10.11-.67-.81-1.8-2.61-3-2.47-4.13.48-3.52,14.76-3.56,17.48a93.21,93.21,0,0,0,1.52,18.56c.79,4.16,2.62,6.88,6.56,8.47C758.32,840.76,762,841.9,763.13,841.23Z" fill="#e6ab55" stroke="#000" stroke-linejoin="round" stroke-width="2"/><path d="M724.84,770.7c-4.52,2.36-1.9,10.62-.69,15.1,2.29,8.51,5.88,16.58,8,25.13a124.508,124.508,0,0,0,3.36,12.13,7.6,7.6,0,0,0,1.88,3.25c2.31,1.84,11.51-3.37,11.4-4.61-.23-2.59-16.51-43.4-17.78-46.06S727.6,769.25,724.84,770.7Z" fill="#e6ab55" stroke="#000" stroke-linejoin="round" stroke-width="2"/><path d="M582.59,996.56h0a9.51,9.51,0,0,1-7.38-9.27V898.82" fill="none" stroke="#000" stroke-linejoin="round" stroke-width="2"/><circle cx="3.69" cy="3.69" r="3.69" transform="translate(571.52 895.45)" fill="none" stroke="#000" stroke-linejoin="round" stroke-width="2"/><path d="M739.75,1145.12l-107.53-21.86v-24.51l107.53,21.87Z" fill="#d20a11" stroke="#000" stroke-miterlimit="10" stroke-width="2"/><path d="M1072.09,485.51a11.37,11.37,0,0,0-4.75-4.21c-4.27-1.95-5.45.69-5.63,4.68-.36,7.47,2.25,13,7.36,18.13a20.863,20.863,0,0,0-3.83,3.46c1.92.78,4.29,1,6,2.19-.84,2.66-4.38,3.75-4.52,6.7,0,.84.85,1.15.92,1.75a8.868,8.868,0,0,1-.47,2.82,7.36,7.36,0,0,0,4.48-.91" fill="none" stroke="#000" stroke-linecap="round" stroke-linejoin="round" stroke-width="2"/><path d="M1142,476.57c-1.27-3.55-7.59-2.64-8.42,1-.69,3.07,1.23,4.77,2.34,7.2,1,2.22.19,3.11-.74,5.32-.2.46-1,1.75-.8,2.27.3.89,1.51.36,1.89.92,1,1.49.74,1.57,0,3.69-1,2.6-1.33,6-2.67,8.36.54-1,3-.87,4.35-1.39-1,1.28-2.23,2.4-2.73,3.91,3.31.13,6.35.71,9.64,1" fill="none" stroke="#000" stroke-linecap="round" stroke-linejoin="round" stroke-width="2"/><path d="M1739.21,1499.44V1375.25L1349.14,1268.4,440.67,1499.44" fill="#fff" stroke="#000" stroke-linejoin="round" stroke-width="2"/><path d="M1739.21,1499.44V1344.09l-390.07-75.69v231.04" fill="#ece3dd" stroke="#000" stroke-miterlimit="10" stroke-width="2"/><path d="M1739.21,1499.44V1344.09l-390.07-75.69L440.67,1499.44" opacity="0.3"/><line y2="153.01" transform="translate(1042.31 1346.43)" fill="none" stroke="#000" stroke-miterlimit="10" stroke-width="2"/><line y2="76.94" transform="translate(743.19 1422.5)" fill="none" stroke="#000" stroke-miterlimit="10" stroke-width="2"/></g></g></svg>