<svg xmlns="http://www.w3.org/2000/svg" width="880.801" height="966.566" viewBox="0 0 880.801 966.566"><g transform="translate(-664.287 -527.654)"><path d="M806.07,1144.7l57.57-19.57,4.82-21.23c1.53-8.27,1.31-22-1.62-30-1.31-3.62-3.17-7-4.11-10.88-1-4.06.52-9.79-1.6-13-3-4.57-13.5-5.28-17.9-3.2-6.87,3.24-6.17,8.76-7.28,14.72-.48,2.6-1.78,3.32-3.2,5.23a32.728,32.728,0,0,0-4.09,7.13h0c-11.33,0-20.79-4.43-31.9-6-9.12-1.32-17.68-2.2-26.84-3.69-14.58-2.37-25-3.5-37.72-4.86-14.42-1.54-39.37-1-43.46,8.31-11.7,1.81-21.22,5.91-20.31,14.65h0c-3.49,2.75-4.95,6.43.18,10.26h.08a4.635,4.635,0,0,0-.43.56c-5.62,8.75,12.4,11.42,18.59,12.46,21,3.54,42.33,2.61,63.39,7.3,17.07,3.8,28.57,12.82,42.66,22.86Z" fill="#fff"/><path d="M920.11,1493.75c.07-9.2,13.13-80.09,13.13-80.09-9.65,2.69-21.52,6.22-32.09,3.5-11.86-3.05-20.3-10.93-27.26-21.07-25.64-37.39-46.49-141.58-59.17-184.78-4.86-16.59-14.78-41.81-21.94-57.61-1.75-3.86-7.49-10.47-5.07-15.09,2.3-4.39,12.41-3.06,17.29-3.71,18.24-2.41,60.77-12,63.88-33,6.54.09,13.94,15.62,16.81,20.48,6.11,10.39,34.82,86.58,40.95,97.06,5.49,9.39,8.15,19.8,13.27,29.37l6.82,12.76c17.68-50,81.35-169.08,103.93-192.67,17.06-17.82,38.29-31.14,62.49-37.05,4.62-1.13,10.56-1.34,14.75-3.44,12.64-6.33,29,1.11,43.21.23,18.57-1.15,36.61-8.62,53.89-15.14,18.49-7,37.75-15.26,57.75-16.37,21.07-1.16,42.62,4.57,58.7,20.32,10.39.46,13.59-.61,23.74-1.26,59.68,2.34,92.39,61.47,117.42,109.54,34.38,66,49.06,165.34,61.48,367.38" fill="#ce9fb5" stroke="#000" stroke-miterlimit="10" stroke-width="2"/><path d="M1193.24,1033.69s52.49,31,52.49,30.2S1285,989.38,1285,989.38l-48.82-11.29" stroke="#000" stroke-miterlimit="10" stroke-width="2"/><path d="M1289,962.57c79.32,45.11,20.66,68.53,12.44,88-19.78,46.91-39.3,54.28-61,91.22-55.45,94.59-65.73,214.42-74.67,321.17a.26.26,0,0,1-.46.15c-1.64-2-4.73-3.06-7.13-5.38a.27.27,0,0,0-.45.18c-.16,2.42-1.55,4.08-2.07,6.28a.27.27,0,0,1-.47.11c-4.12-4.94-8.78-4-11.78,1.1a.26.26,0,0,1-.47,0c-.68-1.51-2.48-3.32-3.08-4.85a.23.23,0,0,0-.23-.17c-1.87,0-6,.08-7.75.32a.241.241,0,0,0-.17.09,20.21,20.21,0,0,1-3,2.89.26.26,0,0,1-.41-.09c-.9-1.84-3.35-4.28-4.16-6.44a.27.27,0,0,0-.46-.09c-1,1.31-3.06,2.63-4.08,4a.25.25,0,0,1-.41,0,6.77,6.77,0,0,0-9.68-1.14.26.26,0,0,1-.4-.09c-1.64-3.44-3.12-7-4.43-10.56a.27.27,0,0,0-.47-.06c-1,1.6-3.09,3.14-4.09,5a.26.26,0,0,1-.44,0c-3-3.86-7-3.48-10.63.36a.25.25,0,0,1-.39,0c-1-1.25-3.35-2.67-4.35-4.25a.26.26,0,0,0-.42,0c-1.11,1.17-1.86,1-2.85,2.62a.26.26,0,0,1-.48-.06c-.5-2-2.2-4.45-2.77-6.13a.27.27,0,0,0-.45-.08,43.874,43.874,0,0,1-3.78,3,.26.26,0,0,1-.44-.2c0-85.29,10.65-167,42-246.59,23-58.43,52.67-86,93.78-133.19,13.88-16,28.71-32.26,41.41-48.78,5.48-7.11,9.45-12.57,8.16-22.27" fill="#ffd153" stroke="#000" stroke-miterlimit="10" stroke-width="2"/><path d="M1289,962.57c79.32,45.11,20.66,68.53,12.44,88-19.78,46.91-39.3,54.28-61,91.22-55.45,94.59-65.73,214.42-74.67,321.17a.26.26,0,0,1-.46.15c-1.64-2-4.73-3.06-7.13-5.38a.27.27,0,0,0-.45.18c-.16,2.42-1.55,4.08-2.07,6.28a.27.27,0,0,1-.47.11c-4.12-4.94-8.78-4-11.78,1.1a.26.26,0,0,1-.47,0c-.68-1.51-2.48-3.32-3.08-4.85a.23.23,0,0,0-.23-.17c-1.87,0-6,.08-7.75.32a.241.241,0,0,0-.17.09,20.21,20.21,0,0,1-3,2.89.26.26,0,0,1-.41-.09c-.9-1.84-3.35-4.28-4.16-6.44a.27.27,0,0,0-.46-.09c-1,1.31-3.06,2.63-4.08,4a.25.25,0,0,1-.41,0,6.77,6.77,0,0,0-9.68-1.14.26.26,0,0,1-.4-.09c-1.64-3.44-3.12-7-4.43-10.56a.27.27,0,0,0-.47-.06c-1,1.6-3.09,3.14-4.09,5a.26.26,0,0,1-.44,0c-3-3.86-7-3.48-10.63.36a.25.25,0,0,1-.39,0c-1-1.25-3.35-2.67-4.35-4.25a.26.26,0,0,0-.42,0c-1.11,1.17-1.86,1-2.85,2.62a.26.26,0,0,1-.48-.06c-.5-2-2.2-4.45-2.77-6.13a.27.27,0,0,0-.45-.08,43.874,43.874,0,0,1-3.78,3,.26.26,0,0,1-.44-.2c0-85.29,10.65-167,42-246.59,23-58.43,52.67-86,93.78-133.19,13.88-16,28.71-32.26,41.41-48.78,5.48-7.11,9.45-12.57,8.16-22.27" opacity="0.26"/><path d="M1126.16,1095.19s30.58,56.94,86.79,44.9,84.3-42.25,105.13-75.31,30.39-39.25,46.05-48.58" stroke="#000" stroke-miterlimit="10" stroke-width="2"/><path d="M1258.54,963.7c-24,8.63-51.09,7.1-75.32,15.94-25.46,9.3-50.29,31.07-60.26,56.65-7.42,19-9.47,45.11,1,63.15,19.32,33.35,69.45,42.66,103.53,32.27,33.62-10.24,63.12-40.78,84.63-67.54,8.8-11,16.23-22.7,26.8-32.45,6.12-5.64,14.46-14.4,25.23-15.52,17.5-1.82-24.57-18.66-33.44-19.86-13.19-1.78-23-.81-34.21,5.87-18.1,10.83-30.37,33-51.44,39.85-10,3.26-17.92,1.64-24-6.93-9.12-12.84-2-22.44,9.28-33.05" fill="#ffd153" stroke="#000" stroke-miterlimit="10" stroke-width="2"/><path d="M1258.54,963.7c-24,8.63-51.09,7.1-75.32,15.94-25.46,9.3-50.29,31.07-60.26,56.65-7.42,19-9.47,45.11,1,63.15,19.32,33.35,69.45,42.66,103.53,32.27,33.62-10.24,63.12-40.78,84.63-67.54,8.8-11,16.23-22.7,26.8-32.45,6.12-5.64,14.46-14.4,25.23-15.52,17.5-1.82-24.57-18.66-33.44-19.86-13.19-1.78-23-.81-34.21,5.87-18.1,10.83-30.37,33-51.44,39.85-10,3.26-17.92,1.64-24-6.93-9.12-12.84-2-22.44,9.28-33.05" opacity="0.26"/><path d="M1160.86,1012.22s33.79,27.12,72.17,15.83,44.1-50,66.89-58.86c-8.94-5.49-13.83-6.62-13.83-6.62" stroke="#000" stroke-miterlimit="10" stroke-width="2"/><path d="M792.9,1135.68c-14.09-10-25.59-19.06-42.65-22.86-21.07-4.69-42.37-3.76-63.39-7.3-6.19-1-24.22-3.71-18.6-12.46,3.85-6,20.31-3.94,26-3.75,19.73.67,41.23,3.34,61,5.47" fill="none" stroke="#000" stroke-miterlimit="10" stroke-width="2"/><path d="M668.61,1092.5c-9-6.75,2.39-13,9.31-14.56,7.16-1.57,15.83-.58,23.11-.25,17.28.77,34.63,3.67,51.93,3.87,6,.07,10.13,1.54,15.86,1.74" fill="none" stroke="#000" stroke-miterlimit="10" stroke-width="2"/><path d="M668.43,1082.24c-2-19.32,47-16,57.68-15.29,11.57.73,22.93,4,34.38,5,9,.8,14.21,1.27,23.09,2.75" fill="none" stroke="#000" stroke-miterlimit="10" stroke-width="2"/><path d="M688.74,1067.6c4.08-9.32,29-9.86,43.46-8.32,12.74,1.36,23.14,2.49,37.72,4.86,9.16,1.49,17.72,2.37,26.84,3.69,11.11,1.61,20.57,6,31.9,6" fill="none" stroke="#000" stroke-miterlimit="10" stroke-width="2"/><path d="M828.19,1089.31c-2.93-8.58-.29-16,4.56-22.57,1.42-1.91,2.72-2.63,3.2-5.23,1.11-6,.41-11.48,7.28-14.72,4.41-2.08,14.89-1.37,17.9,3.2,2.12,3.21.6,8.94,1.6,13,.94,3.83,2.8,7.26,4.12,10.88,2.92,8.05,3.14,21.76,1.61,30" fill="none" stroke="#000" stroke-miterlimit="10" stroke-width="2"/><path d="M750.23,1100.25c9.07-13.25,26.32-21.68,40.12-29.18" fill="none" stroke="#000" stroke-miterlimit="10" stroke-width="2"/><path d="M775.76,1103.9A224.71,224.71,0,0,1,820,1093" fill="none" stroke="#000" stroke-miterlimit="10" stroke-width="2"/><path d="M933.24,1413.66c8.18-32,15.19-60.92,24.12-92.71,16.94-60.25,15.22-62.77,43.2-119.06,22.35-45,48.92-86.84,77.58-128" fill="none" stroke="#000" stroke-linejoin="round" stroke-width="2"/><path d="M1382.56,1494.22c.09-19.57,0-47.59,0-67.16a1371.8,1371.8,0,0,0-11.28-176.71s3.9,129.61,0,136.25-2.78,19.36,2.3,29.94,1.7,17.91-2.25,30.33,2.56,30.38-2.39,47.35"/><path d="M946.91,1260.75c1.22,6.58,6.18,13.15,9.54,19,3.46,6,5.19,13,8,19.39" fill="none" stroke="#000" stroke-linejoin="round" stroke-width="2"/><path d="M801.93,1159.29c12.84-.09,24.92-.19,37.25-4.52" fill="none" stroke="#000" stroke-linejoin="round" stroke-width="2"/><path d="M818.86,1171.71a56.638,56.638,0,0,1-15.8-5.65" fill="none" stroke="#000" stroke-linejoin="round" stroke-width="2"/><path d="M950.3,1270.91c4.15,1.46,9.68,2.09,13,5.08" fill="none" stroke="#000" stroke-linejoin="round" stroke-width="2"/><path d="M1345.35,1025.8s36.09-1.52,50.39,11.28,47.41,40.9,58.7,67.11,21.82,21.52,29.35,52.84,19.57,100.56,24.84,146.47-12.8,60.21-3,58,15.05-3.76,10.53,5.27-2.75,28.89,1.64,49.82,6.64,76.58,6.64,76.58" fill="none" stroke="#000" stroke-miterlimit="10" stroke-width="2"/><path d="M1130,847c9-74,12.82-149.73,28.88-222.6,5-22.63,11.29-45.26,24.84-64.46,5.55-7.86,17-14.6,28.29-10.6,26.53,9.38,12.61,52.63,6.79,82.86-12.91,67.06-18.07,115.8-18.06,174.91" fill="#fff" stroke="#000" stroke-miterlimit="10" stroke-width="2"/><path d="M1253.65,779c-54.15-19.8-113,11.18-123.62,58.18-7.14,31.74-10,55.69-9.7,88.72.26,30.42,5.81,52.53,25.94,74.46,14.39,15.69,34.85,22.36,54.7,22.8,61.32,1.34,101.59-60.74,114.42-116.08,16.65-71.85,23.51-146.91,34.09-219.88,4.21-29,7.87-58.1,9.73-87.39,1.19-18.66,3.53-40.15-4.79-57.74-10.07-21.27-34.75-14.35-45.24,1-11.28,16.5-15.47,39.81-20.57,58.78-5.46,20.3-9.63,40.78-13.67,61.39-5.34,27.23-10.82,53.83-15.34,81.25-2.82,17.11-5,28.73-8,44.91" fill="#fff" stroke="#000" stroke-miterlimit="10" stroke-width="2"/><path d="M1159.48,896.53c-4.57,18.27,26.76,14,19.22-3C1174.62,884.33,1162,886.29,1159.48,896.53Z" stroke="#000" stroke-miterlimit="10" stroke-width="2"/><path d="M1243.67,908.67c-28.35,21-63.5,25.73-78.62,13.42,0,0-20.07,16.4-48.31-8.41" fill="none" stroke="#000" stroke-miterlimit="10" stroke-width="2"/><path d="M1310.64,555.82c2.69-6.34,7.42-14,15.62-13.44,9.41.66,8.35,16.75,7.84,23.27-.68,8.8-4.19,18.37-7.84,25.66-4.55,9.08-5.26,13.28-2.37,22,2.59,7.76-.7,12.85-2.56,20.16-1.8,7.08,2.64,11.5,2.76,18.37.2,11.06-3.52,21.06-5.52,31.78-2.7,14.38-8.08,28.65-9.7,43.17-.66,6,0,6,2.76,10.24,2,3,3.38,3.81,2.29,8.13-1.7,6.74-7.42,11.74-8.6,18.91-1.32,8.06,4.35,13.7-3.2,19.09-4.94,3.52-7.44,4.48-1.5,8.57-1.66,1.09-3.5,1.77-5.23,2.72.16,1.11.68.64,1.39.9" fill="none" stroke="#000" stroke-miterlimit="10" stroke-width="2"/><path d="M1117.08,849.31h66.42s-18.06,35.19-40.26,35.19S1117.08,849.31,1117.08,849.31Z" stroke="#000" stroke-miterlimit="10" stroke-width="2"/><path d="M1194.5,849.31h66.42s-18.06,35.19-40.27,35.19S1194.5,849.31,1194.5,849.31Z" stroke="#000" stroke-miterlimit="10" stroke-width="2"/><line x2="182.7" transform="translate(1121.6 849.31)" stroke="#000" stroke-miterlimit="10" stroke-width="2"/><path d="M1281.53,790.42c10.93,3.58,20.61,8.19,29.35,15.81" fill="none" stroke="#000" stroke-miterlimit="10" stroke-width="2"/><path d="M1181.43,573.67c2.9-6.91,13-15.89,20.25-10.55,6.94,5.08,3.61,12.61-.64,18.13-4.51,5.84-12.16,9.92-8.72,17.63,1.94,4.34,2.79,6.83,1.53,12.12-1.48,6.24-3.61,12.39-5.3,18.57-4.3,15.8-6.62,30.71-5.9,47.17.37,8.58.58,15.47-3.77,23-3.25,5.61-9.85,16-7.17,23.19,1.84,4.92,6.27,5.77,5.56,12.26-.37,3.45-2.36,6.63-4,9.62-1.08,1.94-5.29,7-4.71,9.55,1,4.36,6.87,4.17,6.35,9.73-.61,6.52-11,7.43-10.34,14.12,1.68.43,3.43.1,5,.71-2.13,3.7-9.3,2.86-13,4.47.22.1,2.36,5.05,2.59,5.18.09,1.79-1.74,2.3-2.21,3.73a20.832,20.832,0,0,0-.38,2.63" fill="none" stroke="#000" stroke-miterlimit="10" stroke-width="2"/><path d="M1242.54,1183.84a227.1,227.1,0,0,0,31.13,0c19.2-1.13,62.09,0,62.09,0" fill="none" stroke="#000" stroke-linejoin="round" stroke-width="2"/><path d="M1155.82,1011.42s20,39.66,73.83,38.3,132.83-62.69,79.4-44.63" fill="none" stroke="#000" stroke-linejoin="round" stroke-width="2"/></g></svg>