<svg xmlns="http://www.w3.org/2000/svg" width="1670.168" height="1295.016" viewBox="0 0 1670.168 1295.016"><g transform="translate(-329.675 -194.113)"><path d="M794.8,1193.29c156.3-31.24,281.31-73.3,279.21-93.93s-130.5-12-286.81,19.19c-65.52,13.1-125.54,28.1-173,42.62l95.2,47.43C736.41,1204.34,765.1,1199.22,794.8,1193.29Z" stroke="#000" stroke-miterlimit="10" stroke-width="2"/><ellipse cx="129.1" cy="27.72" rx="129.1" ry="27.72" transform="matrix(0.986, -0.165, 0.165, 0.986, 386.429, 1163.032)" stroke="#000" stroke-miterlimit="10" stroke-width="2"/><path d="M680.72,976.8a258.9,258.9,0,0,0-89.65,0H551.22v221.13c0,14.25,37.91,25.8,84.67,25.8s84.68-11.55,84.68-25.8V976.8Z" fill="#92b193" stroke="#000" stroke-linejoin="round" stroke-width="2"/><ellipse cx="84.67" cy="25.8" rx="84.67" ry="25.8" transform="translate(551.22 949.04)" fill="#92b193" stroke="#000" stroke-linejoin="round" stroke-width="2"/><path d="M673.92,949.47a219.423,219.423,0,0,0-76,0H564.05v18.21c0,12.09,32.17,21.89,71.84,21.89s71.85-9.8,71.85-21.89V949.47Z" fill="#92b193" stroke="#000" stroke-linejoin="round" stroke-width="2"/><path d="M680.72,858.34a258.9,258.9,0,0,0-89.65,0H551.22v92.6c0,14.25,37.91,25.8,84.67,25.8s84.68-11.55,84.68-25.8v-92.6Z" fill="#92b193" stroke="#000" stroke-linejoin="round" stroke-width="2"/><ellipse cx="84.67" cy="25.8" rx="84.67" ry="25.8" transform="translate(551.22 830.58)" fill="#92b193" stroke="#000" stroke-linejoin="round" stroke-width="2"/><path d="M673.92,832.59a219.42,219.42,0,0,0-76,0H564.05v16.53c0,12.09,32.17,21.89,71.84,21.89s71.85-9.8,71.85-21.89V832.59Z" fill="#92b193" stroke="#000" stroke-linejoin="round" stroke-width="2"/><path d="M694.85,818.35a340.668,340.668,0,0,0-117.91,0H524.52v9.27c0,18.74,49.86,33.93,111.37,33.93s111.38-15.19,111.38-33.93v-9.27Z" fill="#92b193" stroke="#000" stroke-linejoin="round" stroke-width="2"/><ellipse cx="111.37" cy="33.94" rx="111.37" ry="33.94" transform="translate(524.52 781.84)" fill="#92b193" stroke="#000" stroke-linejoin="round" stroke-width="2"/><path d="M589.34,812c0-13.09,39.12-25.39,87.82-27.78a344.576,344.576,0,0,0-41.27-2.4c-61.51,0-111.37,15.19-111.37,33.93s49.86,33.94,111.37,33.94c54.92,0,100.54-12.11,109.7-28-16.45,5.47-40,9.46-66.22,10.58C629.65,834.37,589.34,825.32,589.34,812Z" fill="#92b193" stroke="#000" stroke-linejoin="round" stroke-width="2"/><path d="M677.16,784.25c-48.7,2.39-87.82,14.69-87.82,27.78,0,13.29,40.31,22.34,90,20.23,26.2-1.12,49.77-5.11,66.22-10.58a11.781,11.781,0,0,0,1.68-5.9C747.27,801.48,718.24,789.25,677.16,784.25Z" stroke="#000" stroke-linejoin="round" stroke-width="2"/><path d="M1998.8,1158.64c-2.81-27.66-142.73-23.58-333.22,6.43l157.5,78.47C1931.89,1210.25,2000.81,1178.47,1998.8,1158.64Z" stroke="#000" stroke-miterlimit="10" stroke-width="2"/><path d="M986.84,1483.2h0a107.29,107.29,0,0,0,55.14,1.17s591.74-146.53,776.69-191.37c53.32-12.93,107.8-29.45,58.67-54.58l-68.6-34.67" stroke="#000" stroke-miterlimit="10" stroke-width="2"/><path d="M1858.31,1173.79l-20.8-33.09L1493.7,969.82a43.868,43.868,0,0,0-6.06-3h-.11a40.589,40.589,0,0,0-25.15-1.64L660.07,1164c-20.57,5.1-39,24.68-47,49.57h0a105.451,105.451,0,0,0-4.68,39.87c2,26.45,13.77,47.23,30,57h0l.16.08a43.011,43.011,0,0,0,6,3L987.9,1483.64l825.8-201.24,36.84-17.24,17.92-47.83Z" fill="#3d393b" stroke="#000" stroke-miterlimit="10" stroke-width="2"/><path d="M1858.31,1173.79l-20.8-33.09L1493.7,969.82a43.868,43.868,0,0,0-6.06-3h-.11a40.589,40.589,0,0,0-25.15-1.64L660.07,1164c-20.57,5.1-39,24.68-47,49.57h0a105.451,105.451,0,0,0-4.68,39.87c2,26.45,13.77,47.23,30,57h0l.16.08a43.011,43.011,0,0,0,6,3L987.9,1483.64l825.8-201.24,36.84-17.24,17.92-47.83Z" stroke="#000" stroke-miterlimit="10" stroke-width="2" opacity="0.23"/><path d="M1868.76,1198.46h0c-3.15-41.77-30.67-69.44-61.46-61.81L1005,1335.5c-30.79,7.63-53.2,47.67-50,89.44h0c3.16,41.77,30.68,69.44,61.47,61.81l802.29-198.85C1849.52,1280.27,1871.92,1240.22,1868.76,1198.46Z" fill="#2b2720" stroke="#000" stroke-miterlimit="10" stroke-width="2"/><path d="M1868.76,1198.46h0c-3.15-41.77-30.67-69.44-61.46-61.81L1005,1335.5c-30.79,7.63-53.2,47.67-50,89.44h0c3.16,41.77,30.68,69.44,61.47,61.81l802.29-198.85C1849.52,1280.27,1871.92,1240.22,1868.76,1198.46Zm-50.5,73.8-803.7,199.2c-24.5,6.07-46.39-15.94-48.91-49.17h0c-2.51-33.23,15.32-65.08,39.81-71.15l803.71-199.2c24.5-6.07,46.39,15.94,48.9,49.17h0C1860.58,1234.34,1842.76,1266.19,1818.26,1272.26Z" fill="#3d393b" stroke="#000" stroke-miterlimit="10" stroke-width="2"/><path d="M1310.55,1387.7l-144.35-76.4,160.75-39.84" fill="#6b6b6a" stroke="#000" stroke-miterlimit="10" stroke-width="2"/><path d="M1471.29,1347.87l-144.34-76.41,160.74-39.84" fill="#6b6b6a" stroke="#000" stroke-miterlimit="10" stroke-width="2"/><path d="M1632.04,1308.04l-144.35-76.41,160.75-39.83" fill="#6b6b6a" stroke="#000" stroke-miterlimit="10" stroke-width="2"/><path d="M1792.45,1268.36l-144.34-76.41,160.74-39.83" fill="#6b6b6a" stroke="#000" stroke-miterlimit="10" stroke-width="2"/><path d="M1150.44,1427.95l-144.34-76.41,160.74-39.84" fill="#6b6b6a" stroke="#000" stroke-miterlimit="10" stroke-width="2"/><ellipse cx="61.37" cy="44.3" rx="61.37" ry="44.3" transform="translate(1280.076 1387.131) rotate(-83.14)" fill="#929292" stroke="#000" stroke-miterlimit="10" stroke-width="2"/><ellipse cx="61.37" cy="44.3" rx="61.37" ry="44.3" transform="translate(1440.8 1347.294) rotate(-83.14)" fill="#929292" stroke="#000" stroke-miterlimit="10" stroke-width="2"/><ellipse cx="61.37" cy="44.3" rx="61.37" ry="44.3" transform="translate(1601.524 1307.456) rotate(-83.14)" fill="#929292" stroke="#000" stroke-miterlimit="10" stroke-width="2"/><ellipse cx="61.37" cy="44.3" rx="61.37" ry="44.3" transform="translate(1762.259 1267.619) rotate(-83.14)" fill="#929292" stroke="#000" stroke-miterlimit="10" stroke-width="2"/><path d="M1415.92,976.36l346.49,171.42v15.75" fill="none" stroke="#000" stroke-miterlimit="10" stroke-width="2"/><path d="M1248.7,1017.76l346.55,171.44v15.78" fill="none" stroke="#000" stroke-miterlimit="10" stroke-width="2"/><path d="M1081.49,1059.16l346.61,171.47v15.76" fill="none" stroke="#000" stroke-miterlimit="10" stroke-width="2"/><path d="M914.27,1100.56l346.67,171.5v15.76" fill="none" stroke="#000" stroke-miterlimit="10" stroke-width="2"/><path d="M747.06,1141.96l346.73,171.53v16.09" fill="none" stroke="#000" stroke-miterlimit="10" stroke-width="2"/><path d="M617.55,1202.14,964.1,1373.59l9.68,6.09" fill="#4d4d4d" stroke="#000" stroke-miterlimit="10" stroke-width="2"/><ellipse cx="61.37" cy="44.3" rx="61.37" ry="44.3" transform="translate(1119.352 1426.969) rotate(-83.14)" fill="#929292" stroke="#000" stroke-miterlimit="10" stroke-width="2"/><ellipse cx="61.37" cy="44.3" rx="61.37" ry="44.3" transform="translate(958.628 1466.807) rotate(-83.14)" fill="#929292" stroke="#000" stroke-miterlimit="10" stroke-width="2"/><ellipse cx="19.76" cy="14.26" rx="19.76" ry="14.26" transform="translate(993.423 1429.083) rotate(-83.14)" fill="#929292" stroke="#000" stroke-miterlimit="10" stroke-width="2"/><ellipse cx="19.76" cy="14.26" rx="19.76" ry="14.26" transform="translate(1154.147 1389.245) rotate(-83.14)" fill="#929292" stroke="#000" stroke-miterlimit="10" stroke-width="2"/><ellipse cx="19.76" cy="14.26" rx="19.76" ry="14.26" transform="translate(1314.871 1349.407) rotate(-83.14)" fill="#929292" stroke="#000" stroke-miterlimit="10" stroke-width="2"/><ellipse cx="19.76" cy="14.26" rx="19.76" ry="14.26" transform="translate(1475.595 1309.57) rotate(-83.14)" fill="#929292" stroke="#000" stroke-miterlimit="10" stroke-width="2"/><ellipse cx="19.76" cy="14.26" rx="19.76" ry="14.26" transform="translate(1636.319 1269.732) rotate(-83.14)" fill="#929292" stroke="#000" stroke-miterlimit="10" stroke-width="2"/><ellipse cx="19.76" cy="14.26" rx="19.76" ry="14.26" transform="translate(1797.054 1229.895) rotate(-83.14)" fill="#929292" stroke="#000" stroke-miterlimit="10" stroke-width="2"/><path d="M1427.4,1032.1c-258.59,51.69-465.41,121.26-461.94,155.41s215.91,19.92,474.51-31.76c108.4-21.67,207.69-46.48,286.22-70.51l-157.51-78.46C1524,1013.82,1476.53,1022.28,1427.4,1032.1Z" stroke="#000" stroke-miterlimit="10" stroke-width="2"/><path d="M1512.82,854.66s5.59-59-11.84-84.78c-3.06,1.76-5.91,3.49-8.41,4.91-13.27,7.5-62,15.94-65.24,16.78l1.46,53.41s31.85-1.18,48.61.35a12.149,12.149,0,0,1,5.16,1.75c3.36-1.77,11.9-5.86,19.94-6.42C1508.29,852.77,1512.82,854.66,1512.82,854.66Z" fill="#c5d7ea" stroke="#000" stroke-miterlimit="10" stroke-width="2"/><path d="M1544.23,855c-9.76-26.71,7.06-67.87-4-86-9-14.76-26-6.67-39.2.91,17.43,25.73,11.84,84.78,11.84,84.78s-4.53-1.89-10.32-14c-8,.56-16.58,4.65-19.94,6.42,13.06,7.79,20.07,39.33,44.27,58.6,27.2,21.64,49.82,16.41,50.82,5.13S1554,881.74,1544.23,855Z" fill="#f4eed8" stroke="#000" stroke-miterlimit="10" stroke-width="2"/><path d="M1127.89,728.15s73,127.37,96.8,141,190.54,3.59,210.92-5.89,34-23.06,30.56-55.33-26.24-38.68-42.84-38-144.29,26.21-152.78,16c8.49-11.88-46.32-173.21-46.32-173.21" fill="#5a8bba" stroke="#000" stroke-miterlimit="10" stroke-width="2"/><path d="M1052.55,409.32s-59.86,25.6-88.45,33.52-82.25,15.26-91.3,18.66-8.82,3.6-14.32-11.56c-5-13.75-39.38-92.85-42.17-105.54-1.48-6.77-10.36-30.47-13.94-35.13s-45.29,6.73-48.64,10.52,2,32.17,6.46,46.24,21.72,78.62,23.94,89.72c3.75,18.76,25.23,60.76,32.26,68.3,8.79,9.43,40.62,12.79,56.72,10.56,16.68-2.3,133.06-1.18,183.8-26" fill="#e6ab55" stroke="#000" stroke-miterlimit="10" stroke-width="2"/><path d="M1007.48,498.78c15.28,44.11,35.6,95.78,35.6,95.78l100.2,52.08L1247.61,598s-6.2-28-31-101.5c-27.68-82-132.57-107.68-184.82-78.36" fill="#e6ab55" stroke="#000" stroke-miterlimit="10" stroke-width="2"/><path d="M1486.82,568.92s10.3,28.28,24.34,40.85,19.26,15.34,19.16,9.2c-.13-8-15.14-26.19-9.43-28.91,8.58,8.8,22.9,21.64,32.64,41.93S1568,634.2,1568,634.2s3.74,4.16,7.6,3.07c4.34-1.23,3.23-15,3.23-15s7.34,4.24,8.12-.6-3-15.49-3-15.49,4.58.83,5.8-2-8-45.24-79.27-68.15" fill="#ffdf8c" stroke="#000" stroke-miterlimit="10" stroke-width="2"/><path d="M1074,406.09s31.56-10.74,91.56-5.53c11.5,1,17.32,2.9,29.82,2.86,76.18-.28,163.77,2.48,184.34,15.84,38.08,24.72,144,103.31,142.91,116.9s-14.25,31.23-27.84,39.15-28-6.08-45-20.69c-20.13-17.3-29.43-19.3-45.29-28.36s-59.88-41.71-59.88-41.71-79.78,6.9-97,7.42c-40,1.19-40.11,9.81-40.11,9.81" fill="#e6ab55" stroke="#000" stroke-miterlimit="10" stroke-width="2"/><path d="M1379.76,419.26c-20.57-13.36-108.16-16.12-184.34-15.84-12.5,0-18.32-1.87-29.82-2.86-60-5.21-91.56,5.53-91.56,5.53l.72.52a115.62,115.62,0,0,0-22.18,3.33v-.62l-4.37,1.85a84.472,84.472,0,0,0-15.47,6.42c-20.05,8.2-50.56,20.25-68.61,25.25-28.58,7.93-82.25,15.26-91.3,18.66s-8.82,3.6-14.32-11.56c-5-13.75-39.38-92.85-42.17-105.54-1.48-6.77-10.36-30.47-13.94-35.13s-45.29,6.73-48.64,10.52,2,32.17,6.46,46.24,21.72,78.62,23.94,89.72c3.75,18.76,25.23,60.76,32.26,68.3,8.79,9.43,40.62,12.79,56.72,10.56,13-1.79,86.59-1.51,142.44-13.07,13.51,37.36,27.53,73,27.53,73l100.2,52.08L1247.61,598s-6.2-28-31-101.5c-.07-.19-.14-.38-.2-.57,5.8-1.81,15.37-3.45,31.22-3.92,17.23-.52,97-7.42,97-7.42s44,32.65,59.88,41.71,25.16,11.06,45.29,28.36c17,14.61,31.46,28.62,45,20.69s26.7-25.56,27.84-39.15S1417.84,444,1379.76,419.26Z" opacity="0.2"/><path d="M1088.37,373.78c-21.52,16.42-81.56,16.19-105.87,13-25.88-3.38-36.93-23.18-30.57-31.14,9.06-11.32,75.89-10.42,94.88-39.06,9.57-14.43,14.35-65.1,17.27-82.59,4.25-25.39,19.87-33.77,20-3.11.09,20.07-.61,34.25-.61,34.25l24.68,1.13c7.07-75.86,28.58-67.37,25.19-.57-1.41,27.73-1.62,69.09-2.24,86.46-1.27,35.55,4.31,48.15,17.84,67.09,4.69,6.56-25.45,21.21-58.4,22.74-26.74,1.24-50.51-5.84-48.6-11,6-16.14,7.36-30,4-45.06" fill="#ffdf8c" stroke="#000" stroke-miterlimit="10" stroke-width="2"/><line x1="14.29" y1="0.71" transform="translate(1069.18 264.44)" fill="#e6ab55" stroke="#000" stroke-miterlimit="10" stroke-width="2"/><path d="M1568,634.2c1.85-6.18-5.89-27.12-21.74-42.22" fill="#ffdf8c" stroke="#000" stroke-miterlimit="10" stroke-width="2"/><path d="M1578.79,622.28c-.49-11.43-10.37-29.36-21.57-38.79" fill="#ffdf8c" stroke="#000" stroke-miterlimit="10" stroke-width="2"/><path d="M1583.92,606.19s-6.37-18.13-18.07-29.64" fill="#ffdf8c" stroke="#000" stroke-miterlimit="10" stroke-width="2"/><path d="M1071.71,1095.93c-7.57,15.93-8,20.31-8,20.31s38.49-4.16,41.48-38.16c-15-12.75-29.94-35.55-55.92-92.15l-54,42.36,48.07,62.84C1048.16,1089.92,1063.7,1086.91,1071.71,1095.93Z" fill="#c5d7ea" stroke="#000" stroke-miterlimit="10" stroke-width="2"/><path d="M1130.13,1098.46c-3-7.18-15.85-14-24.91-20.38-3,34-41.48,38.16-41.48,38.16s.4-4.38,8-20.31c-8-9-23.55-6-28.36-4.8l.4.52s-22.32,46.06-69.11,69.16c-16.36,8.07-20,30.33,14.62,32.39,53.57,3.2,97.31-38.83,112.37-51.24C1119.77,1127,1138.05,1117.46,1130.13,1098.46Z" fill="#f4eed8" stroke="#000" stroke-miterlimit="10" stroke-width="2"/><path d="M1054.52,623.84s-131.18,106.58-161.75,132-52.72,52.65-49.29,81.52S931.83,990.78,938.63,999s35.66,42.33,56,41.41,75.58-23.69,70.48-54.52-89.87-155.66-89.87-155.66,65.86-35.29,94.42-48.87,72.26-27.17,108.15-52.65,80.22-52.58,72.61-111.61c-1.11-8.67-2.85-19.15-2.85-19.15s-37,18.11-125.84,14.72c-40.73-1.56-78.69-18.12-78.69-18.12Z" fill="#3d6285" stroke="#000" stroke-miterlimit="10" stroke-width="2"/><line y1="18.86" x2="19.52" transform="translate(1054.52 604.98)" fill="#5a8bba" stroke="#000" stroke-miterlimit="10" stroke-width="2"/><circle cx="6.51" cy="6.51" r="6.51" transform="translate(950.17 344.4)" stroke="#000" stroke-miterlimit="10" stroke-width="2"/><path d="M1083.63,311.36a5,5,0,0,0-1,2.29,1.71,1.71,0,0,0,1.3,1.87,1.69,1.69,0,0,0,1.59-.95,4.877,4.877,0,0,0,.47-1.89,5.5,5.5,0,0,0-.09-1.62c-.16-.92-1.61-.82-2.3.3" stroke="#000" stroke-miterlimit="10" stroke-width="2"/><path d="M1066.42,309.68a3.59,3.59,0,0,0-.31,3.43,1.26,1.26,0,0,0,.43.56c.72.46,1.52-.5,1.75-1.33a9.247,9.247,0,0,0,.32-2.72,1.42,1.42,0,0,0-.37-1.08,1.06,1.06,0,0,0-1.48.41,3.069,3.069,0,0,0-.27,1.7" stroke="#000" stroke-miterlimit="10" stroke-width="2"/><path d="M1008,1137.77s18,0,25.54,7.13" fill="#f4eed8" stroke="#000" stroke-miterlimit="10" stroke-width="2"/><path d="M1021.11,1124.32s12.4-2.84,22.59,5.84" fill="#f4eed8" stroke="#000" stroke-miterlimit="10" stroke-width="2"/><path d="M1029.89,1113.49s17.21-1.82,25.89,6.11" fill="#f4eed8" stroke="#000" stroke-miterlimit="10" stroke-width="2"/><path d="M1499.7,870.62s13.5.64,20.29-2" fill="#f4eed8" stroke="#000" stroke-miterlimit="10" stroke-width="2"/><path d="M1506.49,882.62a52.269,52.269,0,0,0,18.63,0" fill="#f4eed8" stroke="#000" stroke-miterlimit="10" stroke-width="2"/><path d="M1515.71,894.77a48.216,48.216,0,0,0,14.41,0" fill="#f4eed8" stroke="#000" stroke-miterlimit="10" stroke-width="2"/><path d="M962.68,1175.77s13.2,12.32,38.38,10.54c20.05-1.42,51-11.26,75.68-35.38,28.3-27.67,57.92-37.62,49-58.27" fill="#f4eed8" stroke="#000" stroke-miterlimit="10" stroke-width="2"/><path d="M1518,762c12.14,2.09,18.56,7,17,34.55s-5.66,50.19,9.43,72.08,35.39,40.17,27,50.09" fill="none" stroke="#000" stroke-miterlimit="10" stroke-width="2"/><path d="M1205.11,608.86s5.91,27.68,0,32.76-6.17,8.1,0,8.86,2.39,6-18,15.85-58.79,45.29-105.63,67.18-73.27,43.78-79.68,44.53-20.76,6-17,7.55-40,25.67-40,38.5,24.91,79.25,43.78,90.57,1.51,6.8,9.81,12.84,35.09,48.94,46.61,58.43,5.93,2.71,2.3,11,8.91,7.87,0,22" fill="none" stroke="#000" stroke-miterlimit="10" stroke-width="2"/><path d="M1211.76,703.74s41.92,60,36.94,75.06-4.83,34.72,0,21.89,5.08-6.8,6.09,1.51-2.3,6.8,6.15,2.64,22.79,5.66,71.1-1.13,80.39-17.36,79.82-11.33,25.86-6.79,32.65-6.79,18.19,6.35,19.39,10.92" fill="none" stroke="#000" stroke-miterlimit="10" stroke-width="2"/><path d="M1058.83,270.84s29.34,7.53,74.1,4.12c1.35,17.74-.72,24-.72,24s-44.22,4.36-77.5-5.46a184.114,184.114,0,0,1,4.12-22.66Z" fill="#5a8bba" stroke="#000" stroke-miterlimit="10" stroke-width="2"/><path d="M1044.91,421.72s-11.28,4.73-15,14.22c-2.43,6.2,29.92,22.32,72.94,15s55.59-21.52,57.86-31.71-18.43-9.9-18.43-9.9" fill="none" stroke="#000" stroke-miterlimit="10" stroke-width="2"/><path d="M764.63,214.46c1-1.08,12.38-17.74,14.79-18.89a5.06,5.06,0,0,1,6.91,3.25c1.71,8.6-4,10.64-6.25,17.74-1.66,5.18-.61,10.33-.15,15.69a34.74,34.74,0,0,0,7.86,18.61s10.27,24.19,5.16,39.58-52.41-27.26-52.41-27.26" fill="#ffdf8c" stroke="#000" stroke-linejoin="round" stroke-width="2"/><path d="M752.07,235c1.43-5,1.74-11.32,5.19-14.94,3-3.14,8.36-6.43,12.17-8.25,2.62-1.26,6.36-2.09,8.28.43,3.45,4.54-1.15,12.59-4.56,15.78s-7.19,3.19-6.54,8.65" fill="#ffdf8c" stroke="#000" stroke-linejoin="round" stroke-width="2"/><path d="M743.23,238.72c4-12.68,21.74-5.5,27.89-.29a8.33,8.33,0,0,1,3.06,7c-.73,6-5.66,4.42-9.09,7" fill="#ffdf8c" stroke="#000" stroke-linejoin="round" stroke-width="2"/><path d="M746.28,255.61c4,2.9,15.56,10.41,19.61,2.23,3.37-6.8-6.37-11.42-10.25-13.47-3.22-1.71-10-6.52-13.58-4.73-2.71,1.34-3.3,5.25-4.22,8.09-2.59,8.06-3.37,15-1.88,23,2.37,12.8,3.75,23.51,12.22,32.52,4.73,5,7.06,11.18,11,16.78,1.32,1.86,1,1.85,2.58,2.69a34.62,34.62,0,0,0,36-5.91c1.69-14.62,5.57-31.91,8.52-47.33,1.28-6.73,1.63-12.91.19-19.39a70.185,70.185,0,0,0-3.69-10.46c-1.24-3.14-2.13-7.59-3.93-10.21s-4.59-3.14-7.5-4c-5.13-1.57-8-5.87-12.58-8.46-4.16-2.38-7,2.15-6.12,6.87,1,5.19,4.61,10.76,7.77,14.47,2.3,2.7,6,4.4,7.11,8.14,1.52,5.4-4.19,12.68-5.4,18.39a30,30,0,0,0-.08,11.57c1,5.87,3.81,8.06,7.33,12.26" fill="#ffdf8c" stroke="#000" stroke-linejoin="round" stroke-width="2"/><path d="M781.86,278.17c-.66-.56-.75-1.33-1.44-2.2-1.45-1.81-4.19-2.55-6.2-3.19-6.17-2-14.26-1.73-20.65-2.55" fill="#ffdf8c" stroke="#000" stroke-linejoin="round" stroke-width="2"/><path d="M773.74,228.74a85.755,85.755,0,0,1-3.14,8.83" fill="#ffdf8c" stroke="#000" stroke-miterlimit="10" stroke-width="2"/><path d="M861.43,458.44a46.809,46.809,0,0,1,5.14,19.61" fill="none" stroke="#000" stroke-miterlimit="10" stroke-width="2"/><path d="M770.6,330.5s25.91-.17,31.57-11.49" fill="none" stroke="#000" stroke-miterlimit="10" stroke-width="2"/><path d="M777.8,772.48l-8.64-2.05,28.18-118.91,7.17-10.78,1.47,12.83Z" fill="#e30613" stroke="#000" stroke-linejoin="round" stroke-width="2"/><path d="M870.68,468.24s19.81,13,27.17,9.17-27.74-11.8-9.62-15.2,33.4-6.79,33.4-6.79" fill="none" stroke="#000" stroke-miterlimit="10" stroke-width="2"/><path d="M1020.13,447.5s107.76,137.56,150.59,20.74" fill="none" stroke="#000" stroke-miterlimit="10" stroke-width="2"/><path d="M780.57,714.23c7.55-3.4,8.87-11.32,8.87-11.32,1.13,16.22,9.06,17.92,10.19,7.92s2.45-14.34-13.78-14.91-19.81,13-19.81,13a53.78,53.78,0,0,1-47.55,0c-25.67-12.45-38.25-51.14-38.25-51.14l-20.63,16.8s29.18,64,84.35,61.14c21.51-1.13,32.55-6.51,32.55-6.51" fill="#adcdeb" stroke="#000" stroke-linejoin="round" stroke-width="2"/><path d="M592.71,739.71v64.91s-12.45,2.64-12.45,7.55,37,20.78,57.37,20.78,0-18.52-35.1-29.08V739.71" fill="#adcdeb" stroke="#000" stroke-linejoin="round" stroke-width="2"/><path d="M648.35,727.53v64.92s-12.46,2.64-12.46,7.55,37,20.78,57.37,20.78,0-18.52-35.1-29.09V727.53" fill="#adcdeb" stroke="#000" stroke-linejoin="round" stroke-width="2"/><path d="M78.47,0c43.338,0,78.47,22.431,78.47,50.1s-35.132,50.1-78.47,50.1S0,77.769,0,50.1,35.132,0,78.47,0Z" transform="matrix(0.991, -0.13, 0.13, 0.991, 540.299, 660.164)" fill="#adcdeb" stroke="#000" stroke-width="2"/><ellipse cx="51.34" cy="32.78" rx="51.34" ry="32.78" transform="matrix(0.991, -0.13, 0.13, 0.991, 569.458, 604.541)" fill="#adcdeb" stroke="#000" stroke-linejoin="round" stroke-width="2"/><path d="M650.65,766.51s11.89-36.23,34-59.44C739,692.41,750.28,689,750.28,689s-34,41.36-45.29,88.62c-22.07,5.92-62.27,13.85-62.27,13.85L649,773.08" fill="#f4eed8" stroke="#000" stroke-linejoin="round" stroke-width="2"/><path d="M589.37,679.44c-1.61.77-39.22,19.33-27.35,49.65,11.82,30.14,67.15,34.82,87.48,34.07l.81,21.5c-2.07.08-31.1,1-59.14-7.89-20.66-6.54-40.78-18.4-49.17-39.84-8-20.3-3.48-40.9,12.62-58A94.75,94.75,0,0,1,580.1,660" fill="#adcdeb" stroke="#000" stroke-linejoin="round" stroke-width="2"/><path d="M644.55,766.32s4-15.71,11.75-21.12,7.43.3,2.4,6.16c-2.14,2.51-.21,4.21-.21,4.21s8.93-4.12,13.86-11.34c6.66-9.76,16.89-7.25,12,6.42-4.5,12.53-17.25,34-38.11,34.07" fill="#adcdeb" stroke="#000" stroke-linejoin="round" stroke-width="2"/><path d="M635.81,649.05a32.13,32.13,0,0,1-21.71-3.69c-1.38-.83-1.62-2.78-.55-4.35a3.46,3.46,0,0,1,4.45-1.34c8.55,5.14,22.19,5.22,30.22-3.55a2.94,2.94,0,1,1,4.27,3.92A29.321,29.321,0,0,1,635.81,649.05Z" fill="#fff" stroke="#000" stroke-miterlimit="10" stroke-width="2"/><ellipse cx="7.17" cy="5.97" rx="7.17" ry="5.97" transform="translate(649.062 628.514) rotate(-85.08)" fill="#fff" stroke="#000" stroke-miterlimit="10" stroke-width="2"/><ellipse cx="7.17" cy="5.97" rx="7.17" ry="5.97" transform="translate(602.005 634.461) rotate(-85.08)" fill="#fff" stroke="#000" stroke-miterlimit="10" stroke-width="2"/><path d="M790.29,707.52s-13.36,1.54-18.19,8.16c-4.51,6.18-2.12,14,7.74,15.06,13.19,1.42,17-3.3,19-8.43s2-15.43-1.82-17.31" fill="#adcdeb" stroke="#000" stroke-linejoin="round" stroke-width="2"/><path d="M789.44,702.91c1.13,16.22,9.06,17.92,10.19,7.92s2.45-14.34-13.78-14.91-19.81,13-19.81,13" fill="#adcdeb" stroke="#000" stroke-linejoin="round" stroke-width="2"/><path d="M383.23,1111.1V1176s-12.46,2.64-12.46,7.55,37,20.78,57.37,20.78,0-18.52-35.1-29.08V1111.1" fill="#ffc3e1" stroke="#000" stroke-linejoin="round" stroke-width="2"/><path d="M491.88,636.84s-30.68,12.88-48.79,41.25-46.42,26.68-60,39.7V816.3s13.81-17.69,32.1-22.43,33.57-5.86,49.42-29.36,27.28-26.34,27.28-26.34" fill="#d20a11" stroke="#000" stroke-miterlimit="10" stroke-width="2"/><path d="M438.86,1098.93v64.91s-12.45,2.64-12.45,7.55,37,20.78,57.37,20.78,0-18.52-35.1-29.09v-64.15" fill="#ffc3e1" stroke="#000" stroke-linejoin="round" stroke-width="2"/><ellipse cx="78.47" cy="50.1" rx="78.47" ry="50.1" transform="matrix(0.991, -0.13, 0.13, 0.991, 330.797, 1031.552)" fill="#ffc3e1" stroke="#000" stroke-linejoin="round" stroke-width="2"/><rect width="4.59" height="567.5" transform="translate(491.88 636.84)" fill="#6b6b6a" stroke="#000" stroke-miterlimit="10" stroke-width="2"/><path d="M481.87,1093.69s13.3,6.79,21.23,3.4,10.21-22,5.67-26.13-21.24.44-21.24.44" fill="#ffc3e1" stroke="#000" stroke-linejoin="round" stroke-width="2"/><ellipse cx="51.34" cy="32.78" rx="51.34" ry="32.78" transform="matrix(0.991, -0.13, 0.13, 0.991, 359.955, 975.919)" fill="#ffc3e1" stroke="#000" stroke-linejoin="round" stroke-width="2"/><path d="M377.76,1057.86c-.4,1.74-9.4,42.7,21.68,52.36,30.92,9.62,69.15-30.67,81.27-47L498,1076c-1.24,1.66-18.66,24.9-43.11,41.24-18,12-39.85,20.34-61.83,13.51-20.82-6.48-34.11-22.85-37.41-46.11a94.87,94.87,0,0,1,1.16-31.7" fill="#ffc3e1" stroke="#000" stroke-linejoin="round" stroke-width="2"/><path d="M435.67,1015.89A32.13,32.13,0,0,1,414,1012.2c-1.38-.83-1.63-2.78-.55-4.35a3.44,3.44,0,0,1,4.44-1.34c8.55,5.14,22.19,5.22,30.23-3.55a2.94,2.94,0,1,1,4.27,3.92,29.321,29.321,0,0,1-16.72,9.01Z" fill="#fff" stroke="#000" stroke-miterlimit="10" stroke-width="2"/><ellipse cx="7.17" cy="5.97" rx="7.17" ry="5.97" transform="translate(445.545 994.106) rotate(-85.08)" fill="#fff" stroke="#000" stroke-miterlimit="10" stroke-width="2"/><ellipse cx="7.17" cy="5.97" rx="7.17" ry="5.97" transform="translate(403.917 1001.509) rotate(-85.08)" fill="#fff" stroke="#000" stroke-miterlimit="10" stroke-width="2"/><path d="M475.9,1069.27s3.23-16.72,9.65-21.06,8.11,2.64,8.11,2.64,21.06-12.93,21.1,5.83c0,16.48-19.09,22.35-19.09,22.35" fill="#ffc3e1" stroke="#000" stroke-linejoin="round" stroke-width="2"/><circle cx="6.84" cy="6.84" r="6.84" transform="translate(487.34 623.21)" fill="#6b6b6a" stroke="#000" stroke-miterlimit="10" stroke-width="2"/><line y1="16.57" transform="translate(1029.1 1467.04)" fill="none" stroke="#000" stroke-miterlimit="10" stroke-width="2"/><line y1="16.57" transform="translate(1207.8 1423.26)" fill="none" stroke="#000" stroke-miterlimit="10" stroke-width="2"/><line y1="16.57" transform="translate(1386.5 1379.48)" fill="none" stroke="#000" stroke-miterlimit="10" stroke-width="2"/><line y1="16.57" transform="translate(1565.19 1335.7)" fill="none" stroke="#000" stroke-miterlimit="10" stroke-width="2"/><line y1="16.57" transform="translate(1743.89 1291.92)" fill="none" stroke="#000" stroke-miterlimit="10" stroke-width="2"/><line x1="9.32" y1="7.44" transform="translate(1845.15 1251.94)" fill="#4d4d4d" stroke="#000" stroke-miterlimit="10" stroke-width="2"/></g></svg>