<svg xmlns="http://www.w3.org/2000/svg" width="1956.51" height="1330.72" viewBox="0 0 1956.51 1330.72"><g transform="translate(-142.13 -176.2)"><path d="M1772.27,580.55h0c-51.93-15.88-94,13.35-94,65.27V980.68l188,57.49V703.31C1866.29,651.39,1824.19,596.43,1772.27,580.55Z" fill="#743310" stroke="#000" stroke-linejoin="round" stroke-width="2"/><path d="M2097.64,1297.99,924.22,1505.92,143.13,1267.56l1173.43-207.93Z" fill="#5d210d" stroke="#000" stroke-linejoin="round" stroke-width="2"/><path d="M2097.64,1297.99,924.22,1505.92,143.13,1267.56l1173.43-207.93Z" opacity="0.3"/><path d="M1391.49,1134.25,1109,1184.33V552.42l282.49-50.08Z" fill="#94794f" stroke="#000" stroke-linejoin="round" stroke-width="2"/><path d="M920.97,495.07,1109,552.42v631.91l-188.03-57.34Z" fill="#78572c" stroke="#000" stroke-linejoin="round" stroke-width="2"/><path d="M1391.49,502.31,1109,552.37,920.97,494.99l282.48-50.06Z" fill="#cbae78" stroke="#000" stroke-linejoin="round" stroke-width="2"/><path d="M1459.15,1206.67l-58.73-16.78,111.33-19.68-65.27-20.01,98.15-16.73V1072.8l52.84-25.05v-30.62l78.64-40.82v204.48" stroke="#000" stroke-linejoin="round" stroke-width="2"/><path d="M1459.15,1158.41l188.03,57.34v48.27l-188.03-57.35Z" fill="#78572c" stroke="#000" stroke-linejoin="round" stroke-width="2"/><path d="M1701.97,1206.37l-54.79,9.33-188.03-57.38,54.79-9.33Z" fill="#cbae78" stroke="#000" stroke-linejoin="round" stroke-width="2"/><path d="M1513.88,1100.52l188.03,57.34v48.27l-188.03-57.35Z" fill="#78572c" stroke="#000" stroke-linejoin="round" stroke-width="2"/><path d="M1756.7,1148.48l-54.79,9.33-188.03-57.38,54.79-9.33Z" fill="#cbae78" stroke="#000" stroke-linejoin="round" stroke-width="2"/><path d="M1568.77,1042.88l188.04,57.34v48.27l-188.04-57.35Z" fill="#78572c" stroke="#000" stroke-linejoin="round" stroke-width="2"/><path d="M1811.6,1090.84l-54.79,9.33-188.04-57.38,54.79-9.33Z" fill="#cbae78" stroke="#000" stroke-linejoin="round" stroke-width="2"/><path d="M1623.46,985.37l188.04,57.34v48.26l-188.04-57.34Z" fill="#78572c" stroke="#000" stroke-linejoin="round" stroke-width="2"/><path d="M1866.29,1033.33l-54.79,9.33-188.04-57.38,54.79-9.33Z" fill="#cbae78" stroke="#000" stroke-linejoin="round" stroke-width="2"/><ellipse cx="47.745" cy="23.005" rx="47.745" ry="23.005" transform="translate(1129.499 650.285) rotate(-16.809)" fill="#5a8bba" stroke="#000" stroke-linejoin="round" stroke-width="2.006"/><ellipse cx="34.12" cy="14.58" rx="34.12" ry="14.58" transform="matrix(0.961, -0.276, 0.276, 0.961, 1140.508, 656.579)" fill="#e30613" stroke="#000" stroke-linejoin="round" stroke-width="2"/><path d="M1246.12,497.17c-10.22,18.23-78.95,24.15-153.5,13.21-43.81-6.42-79.89-17.23-100.12-28.75-6.15-23.66-16.71-65.85,3.87-78.17,63.41-37.95,192.43-10.78,133.25,40.91C1204.17,455.3,1256.33,478.94,1246.12,497.17Z" stroke="#000" stroke-miterlimit="10" stroke-width="2"/><path d="M1034.75,260.3c-11.91-50.6-12.35-28.46-5.77,15.75,1,6.62,1.94,13.72,2.86,21a.844.844,0,0,1-.07-.13c-10-17.28-44.82-64.33-50.13-63s29.55,58.58,32.87,69.89c4,13.65,9.84,38.27,14.48,58.59-12.07-37.66-30.5-44.32-39-47.12-10.62-3.47-59.76-5.29-66-.09s63.31,7.14,79.74,19.89,32.71,60.61,32.71,60.61l7.35-4.26s-.06-2.29-.22-6.16l4.55-.85S1046.66,310.9,1034.75,260.3Z" stroke="#000" stroke-miterlimit="10" stroke-width="2"/><path d="M1168.64,293.78c-18.13-5.84-45.91-.65-66.52,11.07,13.45-20,34.65-49.4,40.86-59.4,6.66-10.73-8.76-1.53-30.85,23.55s-27.43,30.23-32.57,44c-3,8.08-10.49,33.58-16.13,53.21,4.42-23.27,10.4-55.13,11.92-65.31,2.49-16.66,28.72-85,24.73-82.69s-31.2,54.54-39.17,79.45-10.29,95.23-10.29,95.23l7.8-.48.34-1.77,3.24-.2s2-5,5.15-12.63c-1.93,8.89-2.92,14.93-2.92,14.93l4.31,1.8c8.63-36.31,28.22-71.9,33.61-76s40.09-16.89,54-18.73S1188.39,300.14,1168.64,293.78Z" stroke="#000" stroke-miterlimit="10" stroke-width="2"/><path d="M1007.82,350.82c-6.76-4.53-26.07,3.51-40.87,9.12s-20.83,12.17-14.73,11,41-14,51.3-13.93c6.16,0,18.79,28.75,24.45,38.8l2-3.94S1014.57,355.34,1007.82,350.82Z" stroke="#000" stroke-miterlimit="10" stroke-width="2"/><ellipse cx="44.99" cy="35.72" rx="44.99" ry="35.72" transform="matrix(0.168, -0.986, 0.986, 0.168, 1277.966, 788.337)" fill="#f4eed8" stroke="#000" stroke-linejoin="round" stroke-width="2"/><path d="M1042.47,381.31c0-35.3,64-8.73,128-8.73s128-26.57,128,8.73-1.43,129.22-128,129.22S1042.47,416.61,1042.47,381.31Z" fill="#ffe4b0" stroke="#000" stroke-miterlimit="10" stroke-width="2"/><ellipse cx="127.99" cy="28.56" rx="127.99" ry="28.56" transform="translate(1042.47 347.12)" fill="#ffe4b0" stroke="#000" stroke-miterlimit="10" stroke-width="2"/><ellipse cx="107.05" cy="20.74" rx="107.05" ry="20.74" transform="translate(1063.41 354.12)" fill="#391d17" stroke="#000" stroke-miterlimit="10" stroke-width="2"/><path d="M1158.3,362.85s-1.7-83.79-15.75-142.19-14.56-33.25-6.79,17.52,13.94,125.71,13.94,125.71" fill="#92b193" stroke="#000" stroke-miterlimit="10" stroke-width="2"/><path d="M1153.19,370.53s-2.4-88-14.15-108.4-52.84-76.32-59.1-75.15,34.84,68.71,38.75,81.81c9,30.14,25.83,106.07,25.83,106.07Z" fill="#92b193" stroke="#000" stroke-miterlimit="10" stroke-width="2"/><path d="M1144.52,374.86s-19.19-55.58-38.56-71.24-101.35-22.7-94-28.18,65.26,0,77.79,4.7S1132.78,297.36,1144.52,374.86Z" fill="#92b193" stroke="#000" stroke-miterlimit="10" stroke-width="2"/><path d="M1174.69,370.59s29.57-69.82,44-90c15.44-21.58,43.64-57.59,51.49-69.34s-10.33-2.34-36.37,24.66-32.35,32.49-38.4,47.75-27.26,86.9-27.26,86.9Z" fill="#92b193" stroke="#000" stroke-miterlimit="10" stroke-width="2"/><path d="M1161.26,372.58s2.74-79.85,12.14-107.64,41.49-85.33,46.18-87.67-26.22,73.58-29.16,92.37-20,102.94-20,102.94Z" fill="#92b193" stroke="#000" stroke-miterlimit="10" stroke-width="2"/><path d="M1177.31,373.35s13.7-79.45,38.36-93.93,61.45-20,84.74-11.35,1.76,4.81-14.68,5.93-57.35,13.24-63.71,17.55S1192.58,335,1182.4,375.7Z" fill="#92b193" stroke="#000" stroke-miterlimit="10" stroke-width="2"/><path d="M1137,370.08l-2.39,4.34c-6.67-11.83-21.56-45.39-28.83-45.84-12.08-.76-53.29,11.42-60.48,12.28s-.08-6.19,17.37-11.54,40.22-13.16,48.18-7.54S1137,370.08,1137,370.08Z" fill="#92b193" stroke="#000" stroke-miterlimit="10" stroke-width="2"/><path d="M1189.15,373s19.08-36.92,56.66-40.73,25.24-.59-6.46,9.68-46.68,33.76-46.68,33.76Z" fill="#92b193" stroke="#000" stroke-miterlimit="10" stroke-width="2"/><path d="M1098.83,382.36s7.44-5.88,12.72-6.66,13.51-2.74,17-4.3,12.53-8.61,20.35-8.41,12.18,1.95,19.2,0,18.43-4.41,24.84,0,5.87,5.94,12.72,8.45,11.94,8.77,17,9.75" fill="#391d17" stroke="#000" stroke-miterlimit="10" stroke-width="2"/><path d="M503.71,1069.17l.65,5.83Z"/><path d="M1376.69,600.4l-74.5,20.73-3.74-41.57,74.5-20.73Z" fill="#f4eed8" stroke="#000" stroke-linejoin="round" stroke-width="2"/><path d="M1325.75,721.76c5.37-2.35,12.9,2.39,16.27,6.27,1.18,1.36,3.5,3.74,2.51,5.82-1.28,2.68-6.53,1.3-8.33,2.86-5.12,4.45,6.53,8.51,8.56,9.81,1.24.79,2.82,2.65,2,4.23s-4.22,1.31-5.66,1.57c-.52,2.43,3.7,4.34,4.9,6-2.43.42-3.3,1.33-1.51,3.23" fill="none" stroke="#000" stroke-linejoin="round" stroke-width="2"/><path d="M1311.66,786.05c4.18-.73,8.15-3.57,9.06-8,.42-2.06.07-4.4-2.35-3.43-2.66,1.06-3.5,4.35-3.36,6.88.16,2.86.77,3.21,3.35,3.22,4.23,0,9.14-.11,12.1-3.79,1.28-1.58,4.85-7.52,2.94-9.8-1.08-1.27-3.7-.26-4.52.79s-1.19,2.7-1.75,3.81a4.931,4.931,0,0,0-.65,3" fill="none" stroke="#000" stroke-linejoin="round" stroke-width="2"/><path d="M1307.26,772.69a9,9,0,0,0-2.59.56c-2.26.47-3.21-.11-5-1.43s-4.63-2.8-4.9-5.13c2.45-.63,5.22,0,7.74-.14,1.48-.08,3.34-.39,4-2,.71-1.76-1.18-3.89-2.41-5-3.29-2.89-8.26-2.78-9.54-7.38-1-3.61-1.86-7.16-.89-10.84,2,1.23,4.14,4.28,6.56,4.44,4.33.28,3.11-4.88,2.13-7.23s-3.1-6.13-.75-8.37c3.33-3.2,5.34,1.46,7.2,3.52a20.915,20.915,0,0,0,1.13-5.44c.16-2.67-.65-4.74,2.07-6.22a14.771,14.771,0,0,1,4.67-1.67c2-.24,2.33.35,4-1.17" fill="none" stroke="#000" stroke-linejoin="round" stroke-width="2"/><ellipse cx="132.24" cy="27.21" rx="132.24" ry="27.21" transform="translate(924.871 1260.032) rotate(-6.97)" stroke="#000" stroke-linejoin="round" stroke-width="2"/><path d="M1112.66,1190.29s38.52,42.28,38,50.06-7.19,22.23-12.2,23.9-26.66,10.57-6.79,15c10.5,2.34,30.69.5,37.36-7.53s7.23-24.63,15-35.79-15-13.79-17.79-17.2-17.09-52.79-17.09-52.79" fill="#5a8bba" stroke="#000" stroke-linejoin="round" stroke-width="2"/><path d="M1022.38,1286.27c2.67-5.59,2.3-13.15,4.28-23.33s21.68-33.52,28.79-48.31,8.81-32.53,8.81-32.53l-36.62-5.59s-19.06,76.9-23,77.88S970.52,1244,958.05,1247" fill="#5a8bba" stroke="#000" stroke-linejoin="round" stroke-width="2"/><path d="M1039.89,1047.31s-6.39,57.19-9.83,68.08-18.76,51.76-11.69,59.2,12.33,12.88,27.27,14.7,26.91,1,32.33-1.25,10-15.72,11.19-41.3,1.17-64.7,1.17-64.7" fill="#b49159" stroke="#000" stroke-linejoin="round" stroke-width="2"/><path d="M1065,1093.66s10.19,24.17,12,36.44,6.23,59.5,16.66,63.41,16.18,12.13,31.64,6.83,28.77-17.21,33-22,2.36-20.13-8.67-45.68-29.56-63.79-29.56-63.79" fill="#b49159" stroke="#000" stroke-linejoin="round" stroke-width="2"/><path d="M1064.08,927.74s-42.55,9.87-69.76-1.21c-13.07-5.32-1.73-58.56-1.73-58.56s-10.68,4.58-24.89-1.94c-12.64,37.24-10.19,70,2.06,79.84s43.37,21,69.51,21" fill="#f4eed8" stroke="#000" stroke-linejoin="round" stroke-width="2"/><path d="M1015.16,1155.83a76.844,76.844,0,0,0,15.14,7.25c23.13-53.53,31.31-95.4,31.31-95.4s-1.79,73,16.54,116.26c17.83,1.65,59.57-15.45,85.87-24,0-19.57-24.53-80.75-20-122.65,5.58-51.65.68-55.73.68-67.31,0-35-33.06-44.81-62.94-44.81s-50.92,9.44-50.92,46.06v101.89C1030.83,1102.51,1015.16,1155.83,1015.16,1155.83Z" fill="#f4eed8" stroke="#000" stroke-linejoin="round" stroke-width="2"/><path d="M1061.61,1068.91V960.4c0-27.33,19.87-30.38,19.87-30.38" fill="#f4eed8" stroke="#000" stroke-linejoin="round" stroke-width="2"/><path d="M1094.57,925.71a86.738,86.738,0,0,0-22.46,0h-10v10.78c0,2.66,9.5,4.81,21.22,4.81s21.21-2.15,21.21-4.81V925.71Z" fill="#f4eed8" stroke="#000" stroke-linejoin="round" stroke-width="2"/><ellipse cx="21.21" cy="4.81" rx="21.21" ry="4.81" transform="translate(1062.13 920.54)" fill="#f4eed8" stroke="#000" stroke-linejoin="round" stroke-width="2"/><path d="M1091.37,865.19a68.915,68.915,0,0,0-16.07,0h-7.14v58.33c0,1.72,6.8,3.11,15.18,3.11s15.17-1.39,15.17-3.11V865.19Z" fill="#5a8bba" stroke="#000" stroke-linejoin="round" stroke-width="2"/><ellipse cx="15.17" cy="3.11" rx="15.17" ry="3.11" transform="translate(1068.17 861.84)" fill="#5a8bba" stroke="#000" stroke-linejoin="round" stroke-width="2"/><circle cx="35.85" cy="35.85" r="35.85" transform="translate(1047.49 848.04)" fill="#5a8bba" stroke="#000" stroke-linejoin="round" stroke-width="2"/><path d="M1105.11,885.83l20.37,24.09-31.74-6.65S1087.76,885.83,1105.11,885.83Z" fill="#f07f2c" stroke="#000" stroke-linejoin="round" stroke-width="2"/><path d="M991.23,868.44s1.61-25.22-.8-27.63-5.93-4.26-7.41-4.26H979.5a4.791,4.791,0,0,0-3.24-1.29,7.358,7.358,0,0,1-2.41,0s-12.66-12.4-14.53-14.43-4.65,3.33-1.13,6.48,7.6,10.56,9.08,13.15,1.48,9.82,1.48,9.82a102.178,102.178,0,0,0-4.82-9.82c-3.33-6.11-6.82-4.81-4.61,1.11s-.38,17.4,11.47,25.74C980.79,872.55,991.23,868.44,991.23,868.44Z" fill="#5a8bba" stroke="#000" stroke-linejoin="round" stroke-width="2"/><path d="M1106.3,875.44a5.893,5.893,0,0,1,.44,2.27c0,.82-.49,1.71-1.06,1.78s-.84-.42-1-1a6.743,6.743,0,0,1-.14-1.87,8.474,8.474,0,0,1,.22-1.58c.2-.89,1.18-.73,1.54.4" stroke="#000" stroke-miterlimit="10" stroke-width="2"/><path d="M1088.64,879.74a3.5,3.5,0,0,1,0,3.38,1.189,1.189,0,0,1-.46.51c-.74.39-1.45-.62-1.6-1.44a8.678,8.678,0,0,1-.09-2.69,1.391,1.391,0,0,1,.45-1,1,1,0,0,1,1.42.51,3,3,0,0,1,.12,1.69" stroke="#000" stroke-miterlimit="10" stroke-width="2"/><path d="M1011.59,1037.3c-31.81-4-40.63-19.53-41.11-21.57a3.86,3.86,0,0,1,.53-3.25,6.531,6.531,0,0,1-1.28-3.86,3.17,3.17,0,0,1,2.19-2.91s-1.15-3.49,0-4.71a2.4,2.4,0,0,1,3.75-.18s1.16-6.28,6.9,0,20.84,9.76,20.84,9.76-.24-2.75-5-5.5-.6-6.59,7.9-2.4,12,13.05,12,13.05Z" fill="#5a8bba" stroke="#000" stroke-linejoin="round" stroke-width="2"/><path d="M975.67,1000.82s3.07,7.79,16.48,12.07" fill="none" stroke="#000" stroke-linejoin="round" stroke-width="2"/><path d="M971.92,1005.71a28.159,28.159,0,0,0,15.32,11" fill="none" stroke="#000" stroke-linejoin="round" stroke-width="2"/><path d="M971,1012.48s5.34,6.25,11.8,8.88" fill="none" stroke="#000" stroke-linejoin="round" stroke-width="2"/><path d="M1130.19,938.32s33.83,22.76,14.5,69.65c-26.17,63.45-133,37-133,37s-8.86-20.88,6.7-32.4c45.68,6.63,62,3.79,77.54-2.82,15.92-6.75,23.25-22.93,18.43-38" fill="#f4eed8" stroke="#000" stroke-linejoin="round" stroke-width="2"/><path d="M984.42,1258.34c8.63,8.62,13,13.78,19.22,15.28,11,2.62,26.18,11.3,15.31,14.26-14.14,3.85-44.73-16.66-58.93-28.56C943.26,1245.27,965.6,1239.52,984.42,1258.34Z" fill="#5a8bba" stroke="#000" stroke-linejoin="round" stroke-width="2"/><path d="M1101.77,1100.85s25.75-1.48,36.13-6.67" fill="#f4eed8" stroke="#000" stroke-linejoin="round" stroke-width="2"/><path d="M1647.18,1264.02l219.11-36.63V1033.33l-54.79,9.33v48.31l-54.69,9.2v48.32l-54.9,9.32v48.32l-54.73,9.57Z" fill="#94794f" stroke="#000" stroke-linejoin="round" stroke-width="2"/><ellipse cx="8.81" cy="15.35" rx="8.81" ry="15.35" transform="translate(1683.18 778.46)" stroke="#000" stroke-linejoin="round" stroke-width="2"/><ellipse cx="8.81" cy="15.35" rx="8.81" ry="15.35" transform="translate(1687.49 776.5)" fill="#ffdf8c" stroke="#000" stroke-linejoin="round" stroke-width="2"/><path d="M1094.37,1010.76c3.82.1,7.92,4.37,9.24,7.78" fill="none" stroke="#000" stroke-linejoin="round" stroke-width="2"/><path d="M1121.37,1035.72a3.994,3.994,0,0,0,.83-.82,25.921,25.921,0,0,0,4.52-7.42,19.16,19.16,0,0,0,.54-8.23c1.54.15,2.72,2.2,2.91,3.64,2.41-2,4.54-5.66,4.56-8.9" fill="none" stroke="#000" stroke-linejoin="round" stroke-width="2"/><path d="M988.84,917a26.61,26.61,0,0,0,5.08,15.14" fill="none" stroke="#000" stroke-linejoin="round" stroke-width="2"/><ellipse cx="120.67" cy="27.21" rx="120.67" ry="27.21" transform="translate(1139.509 1279.581) rotate(-6.97)" stroke="#000" stroke-linejoin="round" stroke-width="2"/><path d="M1244.53,1120.71s10.18,49.86,20.51,66.82,64.28-5.83,64.28-5.83l-5.78-54.39" fill="#ce9fb5" stroke="#000" stroke-linejoin="round" stroke-width="2"/><path d="M1283.09,1173.58l62.44,93.77s7.59,2.36,12.85-1.2a13.811,13.811,0,0,0,5.62-8.78l-52.37-113.58S1294.13,1147.92,1283.09,1173.58Z" fill="#ffd153" stroke="#000" stroke-linejoin="round" stroke-width="2"/><path d="M1339.94,1226.21c-3.69,13.24-61.54,1.54-67.92-30.73C1292.71,1158.21,1353.24,1178.5,1339.94,1226.21Z" stroke="#000" stroke-linejoin="round" stroke-width="2"/><path d="M1282.3,1184.32l-24.51,110,20,6.43,45.77-116.39S1308.46,1174.54,1282.3,1184.32Z" fill="#ffd153" stroke="#000" stroke-linejoin="round" stroke-width="2"/><path d="M1288.78,1129.64,1272,1195.48s6.27-8.43,30.44-6.24,37.21,23.18,37.48,37c6.57-23.36,23-78.62,22.42-102.22" fill="#ce9fb5" stroke="#000" stroke-linejoin="round" stroke-width="2"/><path d="M1318.41,970c-23.79-3.16-45.46-3.25-64.5,12-33,26.36-41.82,83.34-19.37,106.64,7,7.31,7.65,8.08,7.65,8.08l-.88,30.25s37.85,16,74,14.21,51.66-13.51,51.66-13.51v-31s16.73-12.31,15.85-41.32S1369.11,976.75,1318.41,970Z" fill="#bd2f56" stroke="#000" stroke-linejoin="round" stroke-width="2"/><path d="M1294.34,959.79c-12.2,3-4.5,9.19-13.31,14.28s-1.56,11.16,10.38,13.11,35-.85,41-5.22a17.12,17.12,0,0,1,11.91-3.4s9.43,5,15.36,12.43c0,0,.45-15.16-7.77-24.75S1320.56,953.33,1294.34,959.79Z" fill="#bd2f56" stroke="#000" stroke-linejoin="round" stroke-width="2"/><path d="M1274.24,912.68s1,11.2-9,15.52-5.6,19.22,9,29,12.6,20.13,12.6,20.13,19,10.3,38.92,0c0-9.3,18.9-19.36,17.24-46.86s-66.79-24.65-66.79-24.65" fill="#ffd153" stroke="#000" stroke-linejoin="round" stroke-width="2"/><path d="M1296.1,898.05s-6.91-13.26-23.43-22.76c-3.57,14.92,1.53,35.6,1.53,35.6S1283.76,900.81,1296.1,898.05Z" fill="#ffd153" stroke="#000" stroke-linejoin="round" stroke-width="2"/><path d="M1273.77,917.76s12.12,2.63,68.76,2.33v3.72s-10.15.64-31,5.74c-19.44,4.76-24.19-3.48-27.74-5.74s-9.59,6.54-15.22,2.72" stroke="#000" stroke-miterlimit="10" stroke-width="2"/><path d="M1274.24,912.68s37.62-5,50.14,10.66c8.51,10.63,13.58,8,18.74,9.42,3.33-16.28-1.42-19.83-2.41-28.82S1328.08,874.19,1312,873c-23.52-1.7-33.06,9.6-34.89,23.36C1276.15,903.85,1268.26,901.09,1274.24,912.68Z" fill="#d20a11" stroke="#000" stroke-linejoin="round" stroke-width="2"/><circle cx="4.65" cy="4.65" r="4.65" transform="translate(1257.21 926.7)" fill="#d20a11" stroke="#000" stroke-linejoin="round" stroke-width="2"/><path d="M1265.85,949.82s21.36,8.87,39.38-.85" fill="none" stroke="#000" stroke-linejoin="round" stroke-width="2"/><path d="M1320,900.22s6.92-13.27,23.43-22.76c3.57,14.92-1.53,35.6-1.53,35.6S1332.38,903,1320,900.22Z" fill="#ffd153" stroke="#000" stroke-linejoin="round" stroke-width="2"/><path d="M1316.45,1059.81l23.49,64.18a180.175,180.175,0,0,1-51.27,2.53c-27.79-2.74-39.93-10.56-39.93-10.56l17.11-60.32S1287.1,1062,1316.45,1059.81Z" fill="#bd2f56" stroke="#000" stroke-linejoin="round" stroke-width="2"/><path d="M1366.93,1096.68a60.51,60.51,0,0,1-32.31,12.78" fill="#bd2f56" stroke="#000" stroke-linejoin="round" stroke-width="2"/><path d="M1320.9,1071.94s22.17,1.16,25.11-18-4.18-47.06-4.18-47.06" fill="#bd2f56" stroke="#000" stroke-linejoin="round" stroke-width="2"/><line x2="9.77" y2="7.92" transform="translate(1242.19 1096.68)" fill="#bd2f56" stroke="#000" stroke-linejoin="round" stroke-width="2"/><path d="M1262.26,1068.32s-14.5-11.66-17.73-17.73c0-22.31,10.67-55.19,10.67-55.19" fill="#bd2f56" stroke="#000" stroke-linejoin="round" stroke-width="2"/><path d="M1216.71,1269.16c9.41-5.77,18.92-5.16,31.32,4s9.44,6.25,8.44,1.43,3.12-8,16-2.33.78,9.29-2.63,11.61,5.94,18.44,9.69,12.35,5.25,11.62-4.72,21" fill="#f4eed8" stroke="#000" stroke-linejoin="round" stroke-width="2"/><path d="M1224.52,1267.43c-13.93-1.33-8.47,13.75,6.35,22.56s15.94,8.92,20,13.66,6.45,12.19,14.09,14.59c13.11,4.12,12.75-5.63,4.72-14.1C1253.13,1286.66,1241.23,1269,1224.52,1267.43Z" fill="#1d1d1b" stroke="#000" stroke-linejoin="round" stroke-width="2"/><path d="M1336.06,1253.11c-8.62-.22-10.68.6-10.23,2.71s6.32,9.62,6.32,9.62,2.35,4.36-1.23,9.93-17.27,7.22-18.92,13.08,4.36,8.72,18.19,7.82,17.2-4.39,21.9-10.88c6.7-9.27,6.28-13.4,15-20s-8.53-19.8-8.53-19.8,4.72,9.89-2.2,15.3-12.63,9.47-10.23,4.51S1353.35,1253.56,1336.06,1253.11Z" fill="#f4eed8" stroke="#000" stroke-linejoin="round" stroke-width="2"/></g></svg>